<svg width="78" height="86" viewBox="0 0 78 86" fill="none" xmlns="http://www.w3.org/2000/svg">
<path d="M1.09122 16.8084C1.09117 16.8076 1.09112 16.8068 1.09106 16.806C5.35358 16.4853 8.23525 15.35 10.1297 13.7587C12.1047 12.0997 12.9526 9.99057 13.2078 7.9438C13.4617 5.90708 13.1314 3.9214 12.7461 2.45836C12.5567 1.73935 12.3524 1.14002 12.1925 0.714233H66.3139C66.154 1.14002 65.9497 1.73935 65.7603 2.45836C65.375 3.9214 65.0447 5.90708 65.2986 7.9438C65.5538 9.99057 66.4017 12.0997 68.3767 13.7587C70.2711 15.35 73.1528 16.4853 77.4153 16.806C77.4153 16.8068 77.4152 16.8076 77.4152 16.8084C77.394 17.1325 77.3581 17.613 77.2993 18.2346C77.1816 19.4777 76.9723 21.2847 76.6057 23.5324C75.8726 28.0282 74.5113 34.2838 71.9994 41.3151C67.0005 55.308 57.4536 72.3506 39.2532 84.7294C21.0528 72.3506 11.5059 55.308 6.50702 41.3151C3.99511 34.2838 2.63378 28.0282 1.90064 23.5324C1.53413 21.2847 1.32476 19.4777 1.20709 18.2346C1.14826 17.613 1.11237 17.1325 1.09122 16.8084Z" stroke="white"/>
<mask id="path-2-inside-1_300_4991" fill="white">
<path fill-rule="evenodd" clip-rule="evenodd" d="M59.1226 35.4498C57.0758 32.0775 62.4799 29.7561 62.4799 29.7561C62.6355 35.9598 59.1226 35.4498 59.1226 35.4498ZM58.921 30.7179C55.9866 28.1082 60.4764 24.2732 60.4764 24.2732C62.4266 30.1539 58.921 30.7179 58.921 30.7179ZM57.8769 25.6544C54.3681 23.9227 57.7033 19.0217 57.7033 19.0217C61.1125 24.1712 57.8769 25.6544 57.8769 25.6544ZM57.1625 27.4951C53.4622 28.7494 52.4668 22.8786 52.4668 22.8786C58.4516 24.1382 57.1625 27.4951 57.1625 27.4951ZM51.6269 18.012C57.4011 20.0467 55.6953 23.2057 55.6953 23.2057C51.8663 23.9655 51.6269 18.012 51.6269 18.012ZM22.8126 23.2068C22.8126 23.2068 21.1066 20.0478 26.8808 18.0131C26.8808 18.0131 26.6418 23.9655 22.8126 23.2068ZM21.3456 27.4951C21.3456 27.4951 20.0565 24.1377 26.0413 22.8786C26.0413 22.8786 25.0465 28.7494 21.3456 27.4951ZM20.6314 25.6544C20.6314 25.6544 17.3966 24.1714 20.8035 19.0217C20.8035 19.0217 24.14 23.9227 20.6314 25.6544ZM19.5871 30.7179C19.5871 30.7179 16.0817 30.1541 18.0317 24.2732C18.0317 24.2732 22.5218 28.1082 19.5871 30.7179ZM19.3855 35.4498C19.3855 35.4498 15.8726 35.96 16.0295 29.7561C16.0295 29.7561 21.4323 32.0773 19.3855 35.4498ZM20.5688 38.9806C20.5688 38.9806 17.5403 40.8601 15.2666 35.1001C15.2666 35.1001 21.1331 35.0618 20.5677 38.9804L20.5688 38.9806ZM21.9183 42.5109C21.9183 42.5109 19.2089 44.8384 16.094 39.5005C16.094 39.5005 21.8865 38.5496 21.917 42.5106L21.9183 42.5109ZM24.9549 45.795C24.9549 45.795 22.6904 48.5688 18.7003 43.8696C18.7003 43.8696 24.2368 41.9011 24.9538 45.7947L24.9549 45.795ZM26.1394 46.2404C26.1394 46.2404 22.9404 44.6787 26.4712 39.6145C26.4712 39.6145 29.687 44.5953 26.1383 46.2402L26.1394 46.2404ZM23.0891 42.927C23.0891 42.927 20.1691 40.88 24.4319 36.4321C24.4319 36.4321 26.8459 41.8624 23.088 42.9268L23.0891 42.927ZM20.1869 33.2017C20.1869 33.2017 18.2182 30.2042 23.7975 27.6712C23.7975 27.6712 24.0651 33.6211 20.1858 33.2014L20.1869 33.2017ZM21.3792 38.0534C21.3792 38.0534 18.8434 35.5333 23.7867 31.8834C23.7867 31.8834 25.26 37.6493 21.3792 38.0534ZM28.6292 48.3778C28.6292 48.3778 27.0006 51.5798 22.1136 47.8538C22.1136 47.8538 27.1086 44.7294 28.6292 48.3769V48.3778ZM28.675 41.9623C28.675 41.9623 33.2696 45.6678 30.4081 48.3605C30.4081 48.3605 26.8885 47.8951 28.6741 41.9615L28.675 41.9623ZM32.7552 49.9264C32.7552 49.9264 31.9396 53.4332 26.3085 51.0204C26.3077 51.0186 30.4098 46.7589 32.7543 49.9249L32.7552 49.9264ZM31.7176 45.4009C31.7176 45.4009 37.5666 45.8713 36.6736 49.7269C36.6728 49.7254 33.4983 51.3341 31.7168 45.3994L31.7176 45.4009ZM36.8505 51.1755C36.8505 51.1755 36.5529 54.7652 30.6331 53.2217C30.6318 53.2201 34.0705 48.3925 36.8496 51.174L36.8505 51.1755ZM39.2552 49.1469C39.5399 49.1474 39.818 49.2338 40.0544 49.395C40.2908 49.5562 40.475 49.785 40.5836 50.0526C40.6922 50.3202 40.7204 50.6146 40.6646 50.8984C40.6088 51.1823 40.4716 51.443 40.2702 51.6476C40.0688 51.8522 39.8123 51.9915 39.5332 52.048C39.254 52.1044 38.9646 52.0754 38.7016 51.9647C38.4386 51.8539 38.2137 51.6664 38.0555 51.4258C37.8972 51.1852 37.8126 50.9023 37.8123 50.6128C37.8123 50.4202 37.8495 50.2294 37.9219 50.0514C37.9944 49.8735 38.1006 49.7118 38.2345 49.5756C38.3684 49.4394 38.5274 49.3313 38.7024 49.2577C38.8774 49.184 39.065 49.1461 39.2544 49.1462L39.2552 49.1469ZM47.8773 53.2217C41.9571 54.7652 41.6585 51.1755 41.6585 51.1755C44.4376 48.3925 47.8765 53.2201 47.8765 53.2201L47.8773 53.2217ZM41.8362 49.7269C40.9434 45.8713 46.7922 45.4009 46.7922 45.4009C45.0107 51.3341 41.8353 49.7253 41.8353 49.7253L41.8362 49.7269ZM45.7548 49.9264C48.0998 46.7605 52.2015 51.0204 52.2015 51.0204C46.5693 53.4317 45.7538 49.9249 45.7538 49.9249L45.7548 49.9264ZM48.1017 48.3612C45.2405 45.6685 49.8348 41.963 49.8348 41.963C51.6198 47.8951 48.1009 48.3596 48.1009 48.3596L48.1017 48.3612ZM49.8809 48.3785C51.4003 44.731 56.3964 47.8544 56.3964 47.8544C51.5083 51.579 49.88 48.3769 49.88 48.3769L49.8809 48.3785ZM53.5562 45.7967C54.2722 41.9022 59.8097 43.8713 59.8097 43.8713C55.819 48.5686 53.5553 45.7947 53.5553 45.7947L53.5562 45.7967ZM56.5919 42.5126C56.6234 38.5525 62.416 39.5022 62.416 39.5022C59.2996 44.8382 56.5911 42.5106 56.5911 42.5106L56.5919 42.5126ZM63.2428 35.0997C60.9688 40.8596 57.9406 38.9802 57.9406 38.9802C57.375 35.0618 63.2428 35.0997 63.2428 35.0997ZM58.3233 33.2012C54.443 33.6209 54.7117 27.6708 54.7117 27.6708C60.2909 30.2031 58.3233 33.2012 58.3233 33.2012ZM57.1294 38.0523C53.2484 37.6491 54.722 31.8823 54.722 31.8823C59.666 35.5325 57.1294 38.0534 57.1294 38.0534V38.0523ZM52.3697 46.24C48.8213 44.5953 52.0382 39.6141 52.0382 39.6141C55.569 44.6785 52.3697 46.24 52.3697 46.24ZM55.4201 42.9266C51.6624 41.8621 54.0773 36.4317 54.0773 36.4317C58.3412 40.8798 55.4201 42.9266 55.4201 42.9266Z"/>
</mask>
<path fill-rule="evenodd" clip-rule="evenodd" d="M59.1226 35.4498C57.0758 32.0775 62.4799 29.7561 62.4799 29.7561C62.6355 35.9598 59.1226 35.4498 59.1226 35.4498ZM58.921 30.7179C55.9866 28.1082 60.4764 24.2732 60.4764 24.2732C62.4266 30.1539 58.921 30.7179 58.921 30.7179ZM57.8769 25.6544C54.3681 23.9227 57.7033 19.0217 57.7033 19.0217C61.1125 24.1712 57.8769 25.6544 57.8769 25.6544ZM57.1625 27.4951C53.4622 28.7494 52.4668 22.8786 52.4668 22.8786C58.4516 24.1382 57.1625 27.4951 57.1625 27.4951ZM51.6269 18.012C57.4011 20.0467 55.6953 23.2057 55.6953 23.2057C51.8663 23.9655 51.6269 18.012 51.6269 18.012ZM22.8126 23.2068C22.8126 23.2068 21.1066 20.0478 26.8808 18.0131C26.8808 18.0131 26.6418 23.9655 22.8126 23.2068ZM21.3456 27.4951C21.3456 27.4951 20.0565 24.1377 26.0413 22.8786C26.0413 22.8786 25.0465 28.7494 21.3456 27.4951ZM20.6314 25.6544C20.6314 25.6544 17.3966 24.1714 20.8035 19.0217C20.8035 19.0217 24.14 23.9227 20.6314 25.6544ZM19.5871 30.7179C19.5871 30.7179 16.0817 30.1541 18.0317 24.2732C18.0317 24.2732 22.5218 28.1082 19.5871 30.7179ZM19.3855 35.4498C19.3855 35.4498 15.8726 35.96 16.0295 29.7561C16.0295 29.7561 21.4323 32.0773 19.3855 35.4498ZM20.5688 38.9806C20.5688 38.9806 17.5403 40.8601 15.2666 35.1001C15.2666 35.1001 21.1331 35.0618 20.5677 38.9804L20.5688 38.9806ZM21.9183 42.5109C21.9183 42.5109 19.2089 44.8384 16.094 39.5005C16.094 39.5005 21.8865 38.5496 21.917 42.5106L21.9183 42.5109ZM24.9549 45.795C24.9549 45.795 22.6904 48.5688 18.7003 43.8696C18.7003 43.8696 24.2368 41.9011 24.9538 45.7947L24.9549 45.795ZM26.1394 46.2404C26.1394 46.2404 22.9404 44.6787 26.4712 39.6145C26.4712 39.6145 29.687 44.5953 26.1383 46.2402L26.1394 46.2404ZM23.0891 42.927C23.0891 42.927 20.1691 40.88 24.4319 36.4321C24.4319 36.4321 26.8459 41.8624 23.088 42.9268L23.0891 42.927ZM20.1869 33.2017C20.1869 33.2017 18.2182 30.2042 23.7975 27.6712C23.7975 27.6712 24.0651 33.6211 20.1858 33.2014L20.1869 33.2017ZM21.3792 38.0534C21.3792 38.0534 18.8434 35.5333 23.7867 31.8834C23.7867 31.8834 25.26 37.6493 21.3792 38.0534ZM28.6292 48.3778C28.6292 48.3778 27.0006 51.5798 22.1136 47.8538C22.1136 47.8538 27.1086 44.7294 28.6292 48.3769V48.3778ZM28.675 41.9623C28.675 41.9623 33.2696 45.6678 30.4081 48.3605C30.4081 48.3605 26.8885 47.8951 28.6741 41.9615L28.675 41.9623ZM32.7552 49.9264C32.7552 49.9264 31.9396 53.4332 26.3085 51.0204C26.3077 51.0186 30.4098 46.7589 32.7543 49.9249L32.7552 49.9264ZM31.7176 45.4009C31.7176 45.4009 37.5666 45.8713 36.6736 49.7269C36.6728 49.7254 33.4983 51.3341 31.7168 45.3994L31.7176 45.4009ZM36.8505 51.1755C36.8505 51.1755 36.5529 54.7652 30.6331 53.2217C30.6318 53.2201 34.0705 48.3925 36.8496 51.174L36.8505 51.1755ZM39.2552 49.1469C39.5399 49.1474 39.818 49.2338 40.0544 49.395C40.2908 49.5562 40.475 49.785 40.5836 50.0526C40.6922 50.3202 40.7204 50.6146 40.6646 50.8984C40.6088 51.1823 40.4716 51.443 40.2702 51.6476C40.0688 51.8522 39.8123 51.9915 39.5332 52.048C39.254 52.1044 38.9646 52.0754 38.7016 51.9647C38.4386 51.8539 38.2137 51.6664 38.0555 51.4258C37.8972 51.1852 37.8126 50.9023 37.8123 50.6128C37.8123 50.4202 37.8495 50.2294 37.9219 50.0514C37.9944 49.8735 38.1006 49.7118 38.2345 49.5756C38.3684 49.4394 38.5274 49.3313 38.7024 49.2577C38.8774 49.184 39.065 49.1461 39.2544 49.1462L39.2552 49.1469ZM47.8773 53.2217C41.9571 54.7652 41.6585 51.1755 41.6585 51.1755C44.4376 48.3925 47.8765 53.2201 47.8765 53.2201L47.8773 53.2217ZM41.8362 49.7269C40.9434 45.8713 46.7922 45.4009 46.7922 45.4009C45.0107 51.3341 41.8353 49.7253 41.8353 49.7253L41.8362 49.7269ZM45.7548 49.9264C48.0998 46.7605 52.2015 51.0204 52.2015 51.0204C46.5693 53.4317 45.7538 49.9249 45.7538 49.9249L45.7548 49.9264ZM48.1017 48.3612C45.2405 45.6685 49.8348 41.963 49.8348 41.963C51.6198 47.8951 48.1009 48.3596 48.1009 48.3596L48.1017 48.3612ZM49.8809 48.3785C51.4003 44.731 56.3964 47.8544 56.3964 47.8544C51.5083 51.579 49.88 48.3769 49.88 48.3769L49.8809 48.3785ZM53.5562 45.7967C54.2722 41.9022 59.8097 43.8713 59.8097 43.8713C55.819 48.5686 53.5553 45.7947 53.5553 45.7947L53.5562 45.7967ZM56.5919 42.5126C56.6234 38.5525 62.416 39.5022 62.416 39.5022C59.2996 44.8382 56.5911 42.5106 56.5911 42.5106L56.5919 42.5126ZM63.2428 35.0997C60.9688 40.8596 57.9406 38.9802 57.9406 38.9802C57.375 35.0618 63.2428 35.0997 63.2428 35.0997ZM58.3233 33.2012C54.443 33.6209 54.7117 27.6708 54.7117 27.6708C60.2909 30.2031 58.3233 33.2012 58.3233 33.2012ZM57.1294 38.0523C53.2484 37.6491 54.722 31.8823 54.722 31.8823C59.666 35.5325 57.1294 38.0534 57.1294 38.0534V38.0523ZM52.3697 46.24C48.8213 44.5953 52.0382 39.6141 52.0382 39.6141C55.569 44.6785 52.3697 46.24 52.3697 46.24ZM55.4201 42.9266C51.6624 41.8621 54.0773 36.4317 54.0773 36.4317C58.3412 40.8798 55.4201 42.9266 55.4201 42.9266Z" fill="white" stroke="white" stroke-width="2" mask="url(#path-2-inside-1_300_4991)"/>
<path d="M39.2548 73.0228L39.6479 74.2327L39.7602 74.5782H40.1234H41.3956L40.3664 75.326L40.0725 75.5395L40.1848 75.885L40.5779 77.0949L39.5487 76.3472L39.2548 76.1336L38.9609 76.3472L37.9317 77.0949L38.3248 75.885L38.4371 75.5395L38.1432 75.326L37.1139 74.5782H38.3861H38.7494L38.8617 74.2327L39.2548 73.0228Z" fill="white" stroke="white"/>
<path d="M39.2545 7.24902L39.6477 8.45894L39.7599 8.80443H40.1232H41.3954L40.3662 9.5522L40.0723 9.76573L40.1845 10.1112L40.5777 11.3211L39.5484 10.5734L39.2545 10.3598L38.9607 10.5734L37.9314 11.3211L38.3246 10.1112L38.4368 9.76573L38.1429 9.5522L37.1137 8.80443H38.3859H38.7492L38.8614 8.45894L39.2545 7.24902Z" fill="white" stroke="white"/>
<path d="M29.9689 7.24902L30.362 8.45894L30.4743 8.80443H30.8376H32.1097L31.0805 9.5522L30.7866 9.76573L30.8989 10.1112L31.292 11.3211L30.2628 10.5734L29.9689 10.3598L29.675 10.5734L28.6458 11.3211L29.0389 10.1112L29.1512 9.76573L28.8573 9.5522L27.8281 8.80443H29.1002H29.4635L29.5758 8.45894L29.9689 7.24902Z" fill="white" stroke="white"/>
<path d="M48.5404 7.24902L48.9336 8.45894L49.0458 8.80443H49.4091H50.6813L49.6521 9.5522L49.3582 9.76573L49.4704 10.1112L49.8635 11.3211L48.8343 10.5734L48.5404 10.3598L48.2465 10.5734L47.2173 11.3211L47.6104 10.1112L47.7227 9.76573L47.4288 9.5522L46.3996 8.80443H47.6718H48.0351L48.1473 8.45894L48.5404 7.24902Z" fill="white" stroke="white"/>
<path d="M31.5168 66.8324L31.9099 68.0423L32.0221 68.3878H32.3854H33.6576L32.6284 69.1356L32.3345 69.3491L32.4467 69.6946L32.8399 70.9045L31.8106 70.1567L31.5168 69.9432L31.2229 70.1567L30.1936 70.9045L30.5868 69.6946L30.699 69.3491L30.4051 69.1356L29.3759 68.3878H30.6481H31.0114L31.1236 68.0423L31.5168 66.8324Z" fill="white" stroke="white"/>
<path d="M24.5524 60.642L24.9455 61.8519L25.0578 62.1974H25.4211H26.6932L25.664 62.9451L25.3701 63.1587L25.4824 63.5042L25.8755 64.7141L24.8463 63.9663L24.5524 63.7528L24.2585 63.9663L23.2293 64.7141L23.6224 63.5042L23.7347 63.1587L23.4408 62.9451L22.4116 62.1974H23.6837H24.047L24.1593 61.8519L24.5524 60.642Z" fill="white" stroke="white"/>
<path d="M46.9928 66.8324L47.386 68.0423L47.4982 68.3878H47.8615H49.1337L48.1044 69.1356L47.8106 69.3491L47.9228 69.6946L48.3159 70.9045L47.2867 70.1567L46.9928 69.9432L46.6989 70.1567L45.6697 70.9045L46.0628 69.6946L46.1751 69.3491L45.8812 69.1356L44.852 68.3878H46.1242H46.4874L46.5997 68.0423L46.9928 66.8324Z" fill="white" stroke="white"/>
<path d="M53.9572 60.642L54.3503 61.8519L54.4626 62.1974H54.8258H56.098L55.0688 62.9451L54.7749 63.1587L54.8872 63.5042L55.2803 64.7141L54.2511 63.9663L53.9572 63.7528L53.6633 63.9663L52.6341 64.7141L53.0272 63.5042L53.1395 63.1587L52.8456 62.9451L51.8163 62.1974H53.0885H53.4518L53.5641 61.8519L53.9572 60.642Z" fill="white" stroke="white"/>
</svg>
