<svg width="84" height="86" viewBox="0 0 84 86" fill="none" xmlns="http://www.w3.org/2000/svg">
<path d="M42.3838 85.5597C40.5551 84.9446 38.7264 84.3129 36.8977 83.731C25.493 80.0735 14.105 76.4161 2.70042 72.7586C2.61729 72.7254 2.53417 72.7254 2.46767 72.6755C2.20167 72.476 1.93567 72.2765 1.66968 72.0604C1.93567 71.8276 2.18505 71.4951 2.50092 71.3954C15.6844 67.0729 28.8845 62.7671 42.068 58.4779C42.4503 58.3449 42.9491 58.3615 43.3315 58.4779C55.2681 62.3515 67.1881 66.2417 79.1247 70.1319C80.4048 70.5475 81.7015 70.9631 82.9816 71.412C83.2809 71.5117 83.497 71.8276 83.763 72.0271C83.497 72.2266 83.2643 72.5259 82.9484 72.6256C74.0375 75.5017 65.11 78.3612 56.1824 81.2373C51.9265 82.6005 47.6539 83.9804 43.398 85.3602C43.2816 85.3935 43.1652 85.4766 43.0488 85.5431C42.8327 85.5597 42.6 85.5597 42.3838 85.5597ZM30.1147 71.6115C30.2145 71.6946 30.2477 71.7445 30.2976 71.7611C34.2211 73.0745 38.1445 74.4045 42.0846 75.6846C42.3672 75.7843 42.733 75.7012 43.0322 75.6015C44.8111 75.0196 46.5899 74.4045 48.3688 73.806C50.3804 73.1244 52.392 72.4427 54.52 71.7279C54.2872 71.6281 54.2041 71.5783 54.1043 71.545C50.2806 70.2649 46.4569 68.9848 42.6332 67.7213C42.334 67.6215 41.9184 67.6548 41.6025 67.7712C39.5576 68.4362 37.5128 69.1178 35.4679 69.816C33.7057 70.3979 31.9268 70.9964 30.1147 71.6115ZM68.2022 76.3163C67.8863 76.1667 67.7699 76.1002 67.6369 76.0669C63.9961 74.8533 60.3553 73.6231 56.7144 72.4261C56.3819 72.3097 55.9497 72.3264 55.6172 72.4427C53.2066 73.2407 50.8126 74.072 48.402 74.8866C47.0388 75.3521 45.6589 75.8009 44.1959 76.2997C44.4121 76.4327 44.4952 76.4992 44.5949 76.5324C48.2358 77.7461 51.8766 78.9763 55.5174 80.1733C55.7169 80.2398 55.9663 80.2398 56.1492 80.1899C60.1059 78.9264 64.0792 77.6463 68.2022 76.3163ZM16.6653 76.1002C16.9479 76.2166 17.0476 76.2664 17.1474 76.2997C21.0875 77.5632 25.0275 78.8433 28.9842 80.0902C29.3167 80.1899 29.749 80.1234 30.0815 80.007C33.3898 78.9098 36.6649 77.7793 39.9732 76.6654C40.1894 76.5823 40.4055 76.4992 40.738 76.3496C37.4297 75.2357 34.2211 74.2881 31.1122 73.0911C29.1671 72.343 27.3716 72.1767 25.493 73.141C25.0774 73.3571 24.6119 73.4569 24.163 73.6065C21.7358 74.4045 19.3086 75.2191 16.6653 76.1002ZM57.9114 71.6614C58.194 71.7944 58.3104 71.8609 58.4434 71.8941C62.1009 73.1244 65.775 74.3712 69.449 75.5682C69.7982 75.6846 70.2637 75.6513 70.6294 75.535C73.5886 74.604 76.5312 73.6564 79.4738 72.7087C80.1056 72.5092 80.7373 72.2931 81.5685 72.0105C77.3458 70.6306 73.3226 69.3173 69.2994 68.0205C69.0999 67.954 68.8505 67.9374 68.6511 68.0039C65.11 69.2009 61.5855 70.3979 57.9114 71.6614ZM43.9133 66.9732C44.1461 67.0896 44.2458 67.1394 44.329 67.1727C48.1527 68.4528 51.9597 69.7495 55.7834 71.013C56.0661 71.1128 56.4318 71.0463 56.7311 70.9465C59.0419 70.1818 61.3361 69.4004 63.6304 68.6357C64.7775 68.2533 65.9246 67.8377 67.2712 67.3722C63.0817 66.0089 59.125 64.7122 55.1517 63.4321C54.9023 63.349 54.5532 63.3988 54.2872 63.4986C51.6937 64.3631 49.1003 65.2276 46.5234 66.1087C45.7254 66.3747 44.8942 66.6407 43.9133 66.9732ZM31.345 80.672C31.345 80.7385 31.3283 80.805 31.3283 80.8549C35.0024 82.0353 38.6931 83.2322 42.3672 84.396C42.6332 84.4791 42.9657 84.4126 43.2483 84.3129C45.1768 83.7144 47.1053 83.0992 49.0171 82.4841C50.663 81.9521 52.3089 81.4201 54.1376 80.8216C51.461 79.9239 48.9673 79.0927 46.4902 78.2614C45.1602 77.8126 43.8136 77.0312 42.4836 77.0312C41.1204 77.0312 39.7571 77.8126 38.3939 78.2781C36.0332 79.0594 33.6891 79.874 31.345 80.672ZM17.696 67.4885C17.9287 67.6049 18.0451 67.688 18.1781 67.7379C21.42 68.8185 24.6618 69.8991 27.9203 70.9631C28.2029 71.0463 28.5686 71.013 28.8679 70.9133C30.547 70.3813 32.2261 69.7994 33.9052 69.2508C36.0664 68.5359 38.211 67.8044 40.4554 67.0563C40.2725 66.9566 40.206 66.8901 40.1395 66.8734C36.8977 65.7762 33.6558 64.6956 30.3974 63.615C30.1314 63.5318 29.7989 63.5651 29.5329 63.6482C27.8704 64.1636 26.2245 64.7122 24.562 65.2608C22.3011 65.9923 20.0567 66.7238 17.696 67.4885ZM26.6235 71.678C26.2744 71.545 26.0915 71.4619 25.9253 71.3954C23.1489 70.4644 20.356 69.5833 17.5963 68.5858C16.4491 68.1702 15.4184 68.1702 14.2547 68.5858C10.8632 69.7661 7.43849 70.8468 3.94728 71.9772C4.11353 72.077 4.19665 72.1435 4.2964 72.1767C7.72111 73.274 11.1292 74.3712 14.5539 75.4518C14.7534 75.5183 15.0028 75.535 15.1857 75.4685C18.9595 74.2548 22.7001 72.9914 26.6235 71.678ZM52.924 62.8668C52.924 62.8003 52.9406 62.7338 52.9406 62.6673C50.4801 61.8694 47.9532 61.2044 45.5592 60.2235C43.531 59.3923 41.7022 59.4754 39.6906 60.2567C37.1637 61.2376 34.5369 61.9857 31.8437 62.8668C32.0266 62.9832 32.1097 63.0663 32.1928 63.0996C35.4014 64.1802 38.6266 65.2774 41.8519 66.3248C42.1012 66.4079 42.4503 66.3581 42.7163 66.2583C44.9773 65.5102 47.2217 64.7454 49.466 63.9973C50.6298 63.615 51.7769 63.2492 52.924 62.8668Z" fill="white"/>
<path d="M42.3838 0.440552C44.2624 1.07229 46.141 1.70404 48.0196 2.31916C59.391 5.97661 70.7624 9.61745 82.1171 13.2583C82.2003 13.2915 82.2834 13.3082 82.3499 13.358C82.5993 13.5742 82.8486 13.7903 83.098 14.0064C82.8486 14.2059 82.6491 14.4719 82.3665 14.5716C81.0033 15.0538 79.64 15.486 78.2768 15.9183C66.4898 19.6921 54.7028 23.4825 42.8992 27.2398C42.4005 27.406 41.7521 27.3894 41.2533 27.2398C37.3964 26.0428 33.556 24.7959 29.7157 23.5657C20.5388 20.6231 11.3453 17.6971 2.1684 14.7213C1.73615 14.5883 1.38703 14.2225 0.988037 13.9565C1.35378 13.7238 1.7029 13.3913 2.1019 13.2583C15.0859 9.08545 28.0366 4.92925 40.9707 0.756423C41.2201 0.673299 41.4695 0.540301 41.7188 0.440552C41.935 0.440552 42.1677 0.440552 42.3838 0.440552ZM29.5661 13.6739C29.8653 13.8235 29.9485 13.89 30.0482 13.9233C33.7555 15.1868 37.4629 16.4669 41.1702 17.7137C41.4695 17.8135 41.8851 17.7969 42.201 17.6971C45.1602 16.7329 48.1194 15.7188 51.0786 14.7213C52.0595 14.3888 53.0237 14.0563 54.1542 13.6573C53.7718 13.5243 53.5723 13.4412 53.3728 13.3747C50.264 12.3273 47.1219 11.3631 44.0463 10.2159C42.5501 9.66732 41.2533 9.68395 39.7737 10.2159C36.4654 11.4462 33.0906 12.4935 29.5661 13.6739ZM43.4977 18.3455C43.4977 18.412 43.4977 18.4619 43.4977 18.5284C47.1219 19.7586 50.7627 21.0054 54.4036 22.2357C54.6696 22.3188 55.0021 22.2856 55.2681 22.2024C59.1084 20.9888 62.9487 19.742 66.789 18.5117C67.055 18.4286 67.3044 18.2956 67.6702 18.146C63.7467 16.8326 59.9895 15.5691 56.199 14.3389C55.9164 14.2391 55.5507 14.3223 55.2514 14.422C53.2897 15.0704 51.328 15.7354 49.3496 16.4004C47.4211 17.0321 45.4594 17.6971 43.4977 18.3455ZM16.3494 18.1127C16.5821 18.2291 16.6985 18.3122 16.8315 18.3621C20.6884 19.609 24.562 20.8392 28.4356 22.0528C28.7182 22.1359 29.084 22.1027 29.3832 22.0029C31.2286 21.4044 33.0573 20.7893 34.886 20.1576C36.5153 19.609 38.1611 19.0437 40.0065 18.4286C39.5244 18.2624 39.2584 18.1626 38.9757 18.0629C36.1828 17.1152 33.3399 16.2507 30.5968 15.1701C28.7349 14.4386 26.9892 14.2225 25.1605 15.1535C24.6285 15.4361 24.0134 15.5525 23.4315 15.7354C21.1041 16.5167 18.7766 17.2981 16.3494 18.1127ZM80.8536 13.9898C80.5378 13.8568 80.3882 13.7903 80.2385 13.7404C77.0798 12.7263 73.8878 11.8119 70.779 10.6814C69.1664 10.0996 67.7533 10.1328 66.1739 10.7147C63.381 11.7621 60.5381 12.6432 57.6288 13.6074C57.8117 13.7238 57.8948 13.7903 57.9945 13.8235C61.6852 15.0538 65.3759 16.3006 69.0667 17.5142C69.316 17.5974 69.6319 17.5974 69.8813 17.5142C73.4722 16.3671 77.0798 15.2034 80.8536 13.9898ZM66.6727 9.48445C66.4732 9.36808 66.3901 9.30158 66.2903 9.26833C62.4001 8.02147 58.4933 6.77461 54.6031 5.54437C54.3703 5.47787 54.0544 5.51112 53.8217 5.59424C51.5441 6.34236 49.2499 7.09048 46.9723 7.85522C45.9083 8.22096 44.8277 8.58671 43.5642 9.03558C46.7562 10.0996 49.7652 10.9641 52.658 12.1278C54.8691 13.0255 56.8807 13.0255 59.0751 12.1112C61.5024 11.0971 64.0626 10.3656 66.6727 9.48445ZM17.2471 9.4512C17.3801 9.55095 17.4466 9.61745 17.5131 9.63407C20.8048 10.7646 24.0799 11.9117 27.3882 13.0089C27.7041 13.1087 28.1031 13.0588 28.4356 12.959C30.0981 12.427 31.7273 11.8618 33.3898 11.2966C35.6175 10.5484 37.8286 9.80032 40.2226 9.00233C39.8236 8.85271 39.6075 8.76958 39.3747 8.68646C36.5984 7.75547 33.8054 6.85773 31.0457 5.89349C30.1147 5.56099 29.2835 5.4945 28.3525 5.87687C27.1555 6.35899 25.892 6.67486 24.6451 7.07385C22.1847 7.87184 19.7408 8.65321 17.2471 9.4512ZM26.1081 13.7404C25.9086 13.624 25.8588 13.5908 25.7923 13.5575C22.4673 12.427 19.159 11.2799 15.834 10.1661C15.5846 10.0829 15.2355 10.1328 14.9695 10.2159C12.2763 11.0472 9.59969 11.9117 6.90647 12.7762C5.74273 13.1585 4.579 13.5409 3.24901 13.9898C7.03947 15.2034 10.6304 16.3837 14.238 17.5142C14.504 17.5974 14.8365 17.5309 15.1191 17.4477C17.2804 16.7495 19.425 16.018 21.5696 15.3031C23.0325 14.7878 24.5121 14.289 26.1081 13.7404ZM53.0071 22.9339C52.7411 22.8009 52.6247 22.7344 52.5083 22.7012C49.0337 21.5042 45.5592 20.3072 42.068 19.1435C41.7687 19.0437 41.3531 19.1102 41.0372 19.21C38.1279 20.1576 35.2185 21.1218 32.3092 22.1027C31.7938 22.2689 31.2951 22.4684 30.7631 22.6513C30.8628 22.7843 30.8795 22.8508 30.9293 22.8508C34.5369 24.0145 38.1279 25.1783 41.7521 26.3254C42.0181 26.4085 42.3506 26.342 42.6332 26.2589C43.9299 25.8765 45.2267 25.4443 46.5068 25.0453C48.6015 24.347 50.7129 23.6654 53.0071 22.9339ZM52.5748 4.86275C49.0504 3.73226 45.7254 2.65165 42.3838 1.60429C42.1178 1.52116 41.7853 1.60429 41.5193 1.68741C39.7239 2.25266 37.945 2.8179 36.1495 3.39977C34.6367 3.88189 33.1404 4.36401 31.4779 4.91263C31.7273 5.04563 31.8104 5.11212 31.9102 5.14537C35.1022 6.20936 38.2941 7.28998 41.5027 8.33734C41.7853 8.43709 42.1511 8.37059 42.4503 8.27084C44.7445 7.52272 47.0221 6.75798 49.2997 5.99324C50.3305 5.64412 51.3778 5.27837 52.5748 4.86275Z" fill="white"/>
<path d="M40.9209 33.6237C40.9209 32.3768 40.9209 31.2629 40.9209 30.1823C40.9874 30.1325 41.0206 30.066 41.0705 30.066C44.9607 30.0992 48.8842 29.6503 52.7578 30.3818C57.579 31.2796 61.0203 33.9063 62.0344 38.8771C62.9987 43.6651 62.3669 48.2203 58.7427 51.911C56.7643 53.9226 54.1875 54.7871 51.4777 55.2526C47.9864 55.8511 44.4786 55.6183 40.9541 55.2692C40.9541 49.4671 40.9541 43.7149 40.9541 37.9129C42.4504 37.9129 43.93 37.9129 45.4927 37.9129C45.4927 42.5179 45.4927 47.123 45.4927 51.8611C49.1668 52.0772 52.7079 52.1437 55.3845 49.1513C57.1633 47.1563 57.6455 44.6792 57.5125 42.1023C57.446 40.8555 57.2963 39.5421 56.8641 38.3784C55.7502 35.3859 53.3563 33.9395 50.2807 33.74C47.521 33.5572 44.7446 33.6569 41.9849 33.6403C41.6358 33.6237 41.3199 33.6237 40.9209 33.6237Z" fill="white"/>
<path d="M24.911 35.0867C24.5785 34.0726 24.246 33.125 23.98 32.1441C23.9301 31.9613 24.1462 31.5789 24.3457 31.4625C25.8253 30.5482 27.5044 30.1159 29.2002 29.9164C31.2118 29.6837 33.24 29.7169 35.1519 30.5648C37.4627 31.5789 38.8426 33.2913 38.8758 35.8681C38.9257 38.4782 37.5624 40.2404 35.2849 41.3709C35.0687 41.4873 34.836 41.5704 34.6032 41.6868C34.5534 41.7034 34.5201 41.7533 34.4037 41.853C34.6365 41.9362 34.8027 42.0193 35.0022 42.0858C37.496 42.8173 39.2083 44.38 39.6572 46.9568C40.1393 49.6999 39.2249 52.0274 36.964 53.7564C34.8194 55.369 32.309 55.7514 29.7488 55.7348C27.7206 55.7348 25.7422 55.3191 23.8636 54.4879C23.1986 54.1886 22.9326 53.8728 23.2485 53.108C23.5976 52.2768 23.7971 51.3791 23.9966 50.6808C25.7755 51.0964 27.4546 51.5619 29.1835 51.8778C30.5135 52.1272 31.8435 51.8612 33.0239 51.1629C34.3206 50.3982 34.9357 49.2012 34.8194 47.6883C34.6864 45.8596 33.639 44.7125 31.9765 44.1971C30.9291 43.8813 29.8153 43.8148 28.718 43.6984C28.1694 43.6319 27.6208 43.6818 27.0223 43.6818C27.0223 42.518 27.0223 41.4208 27.0223 40.1739C27.9533 40.1739 28.9009 40.257 29.8153 40.1573C31.4445 39.9911 33.0072 39.5588 33.8052 37.8963C34.5367 36.3835 33.8884 34.6877 32.3423 34.0227C30.5135 33.2414 28.7014 33.5739 26.9226 34.189C26.2576 34.4217 25.6425 34.7542 24.911 35.0867Z" fill="white"/>
<path d="M82.7987 42.4182C82.7987 50.182 82.7987 57.9291 82.7987 65.6929C82.7987 66.1418 83.0148 66.8733 82.2999 66.8733C81.5851 66.8733 81.8012 66.1418 81.8012 65.6929C81.7846 50.1321 81.8012 34.5547 81.8012 18.9938C81.8012 18.7943 81.7347 18.5782 81.8178 18.412C81.9508 18.1626 82.1669 17.9465 82.3498 17.7303C82.4994 17.9465 82.6989 18.1626 82.7987 18.412C82.8652 18.6115 82.8153 18.8442 82.8153 19.077C82.7987 26.8574 82.7987 34.6378 82.7987 42.4182Z" fill="white"/>
<path d="M2.65061 42.2686C2.65061 49.9991 2.65061 57.7296 2.65061 65.4436C2.65061 65.6597 2.71711 65.9257 2.63398 66.1086C2.51761 66.3579 2.28486 66.574 2.10199 66.7902C1.95236 66.574 1.75287 66.3579 1.65312 66.1252C1.58662 65.9257 1.63649 65.6929 1.63649 65.4602C1.63649 49.9492 1.63649 34.4383 1.65312 18.9273C1.65312 18.4618 1.38712 17.6638 2.13524 17.6472C2.88335 17.6472 2.65061 18.4286 2.65061 18.9107C2.65061 26.6911 2.65061 34.4715 2.65061 42.2686Z" fill="white"/>
<path d="M16.0501 42.2519C16.0501 48.2036 16.0501 54.1553 16.0501 60.107C16.0501 60.3065 16.1 60.506 16.0335 60.6888C15.9503 60.9382 15.7675 61.171 15.6345 61.4037C15.4682 61.1543 15.2853 60.9216 15.1523 60.6556C15.1025 60.5392 15.1357 60.3896 15.1357 60.24C15.1357 48.2202 15.1357 36.2171 15.1523 24.1974C15.1523 23.7817 14.9196 23.1666 15.6012 23.1001C15.701 23.0835 16.0168 23.8316 16.0168 24.2306C16.0501 30.2322 16.0501 36.2337 16.0501 42.2519Z" fill="white"/>
<path d="M69.2828 42.335C69.2828 48.32 69.2828 54.3049 69.2662 60.2898C69.2662 60.7055 69.5156 61.4203 68.8506 61.4369C68.1357 61.4702 68.4017 60.7387 68.4017 60.3397C68.3851 48.32 68.3851 36.2836 68.4017 24.2639C68.4017 23.8981 68.6843 23.1832 68.8007 23.1999C69.5156 23.2497 69.2662 23.8815 69.2662 24.2971C69.2828 30.3153 69.2828 36.3168 69.2828 42.335Z" fill="white"/>
</svg>
