<svg width="103" height="92" viewBox="0 0 103 92" fill="none" xmlns="http://www.w3.org/2000/svg">
<path d="M0.499268 88.5H13.8258V91.4427H0.499268V88.5Z" fill="white" stroke="white"/>
<path d="M11.7219 83.1167H25.0484V86.0594H11.7219V83.1167Z" fill="white" stroke="white"/>
<path d="M22.8489 77.5093H36.1754V80.4519H22.8489V77.5093Z" fill="white" stroke="white"/>
<path d="M33.9768 71.9016H47.3033V74.8443H33.9768V71.9016Z" fill="white" stroke="white"/>
<path d="M45.1045 66.2939H58.431V69.2366H45.1045V66.2939Z" fill="white" stroke="white"/>
<path d="M67.3621 55.0786H80.6886V58.0213H67.3621V55.0786Z" fill="white" stroke="white"/>
<path d="M78.49 49.3994H102.33V52.3421H78.49V49.3994Z" fill="white" stroke="white"/>
<path d="M56.2344 38.1838H69.5609V41.1265H56.2344V38.1838Z" fill="white" stroke="white"/>
<path d="M45.1045 32.5764H58.431V35.5191H45.1045V32.5764Z" fill="white" stroke="white"/>
<path d="M33.9768 26.9688H47.3033V29.9114H33.9768V26.9688Z" fill="white" stroke="white"/>
<path d="M22.8489 21.361H36.1754V24.3036H22.8489V21.361Z" fill="white" stroke="white"/>
<path d="M25.5478 15.2513H23.5128V5.52348C23.5128 4.2771 24.1484 3.14336 25.2122 2.49307C26.2775 1.84114 27.5744 1.79141 28.6856 2.3602L77.044 27.1063C78.2375 27.7179 78.9781 28.9293 78.9781 30.2696V43.2898H66.8624V47.2325L81.1881 47.2332V43.2906H79.5042L79.505 30.2696C79.505 28.731 78.6534 27.34 77.2834 26.6384L28.9251 1.89231C27.6515 1.2396 26.1596 1.29709 24.9388 2.04461C23.7173 2.79058 22.9884 4.09213 22.9884 5.52339V15.2512H11.2217V19.1938H25.5482L25.5478 15.2513Z" fill="white" stroke="white"/>
<path d="M58.219 50.4011C58.219 48.9698 57.4893 47.6683 56.2686 46.9223C55.0448 46.1725 53.5551 46.1181 52.2816 46.77L3.92318 71.5181C2.55325 72.219 1.70239 73.61 1.70239 75.1485V86.4669H2.22767V75.1485C2.22767 73.8081 2.96898 72.5967 4.16252 71.986L52.5209 47.2379C53.6282 46.6691 54.9297 46.718 55.9935 47.3708C57.0573 48.0211 57.6929 49.1549 57.6929 50.4012V60.1862L55.7348 60.1858V64.1285L70.0605 64.1301V60.1874L58.2191 60.1862L58.219 50.4011Z" fill="white" stroke="white"/>
<path d="M22.9822 6.47021L79.0834 34.3274" stroke="white"/>
<path d="M22.9822 10.3392L79.0834 38.1964" stroke="white"/>
<path d="M57.8037 50.9642L1.7025 78.8214" stroke="white"/>
<path d="M57.8035 54.8334L1.70226 82.6905" stroke="white"/>
</svg>
