<svg width="94" height="89" viewBox="0 0 94 89" fill="none" xmlns="http://www.w3.org/2000/svg">
<path d="M79.7086 65.2891C79.7086 65.1139 79.5679 64.9761 79.3997 64.9761C79.2315 64.9761 79.0908 65.1139 79.0908 65.2891C79.0908 65.4643 79.2315 65.6021 79.3997 65.6021C79.5679 65.6021 79.7086 65.4643 79.7086 65.2891Z" fill="white" stroke="white"/>
<path d="M79.7084 62.5603C79.7084 62.4011 79.5807 62.2764 79.4284 62.2764C79.2762 62.2764 79.1484 62.4011 79.1484 62.5603C79.1484 62.7195 79.2762 62.8442 79.4284 62.8442C79.5807 62.8442 79.7084 62.7195 79.7084 62.5603Z" fill="white" stroke="white"/>
<path d="M79.6507 60.0051C79.6507 59.878 79.5489 59.7793 79.4285 59.7793C79.3082 59.7793 79.2063 59.878 79.2063 60.0051C79.2063 60.1322 79.3082 60.231 79.4285 60.231C79.5489 60.231 79.6507 60.1322 79.6507 60.0051Z" fill="white" stroke="white"/>
<path d="M79.5928 57.566C79.5928 57.471 79.5168 57.3982 79.4284 57.3982C79.3399 57.3982 79.2639 57.471 79.2639 57.566C79.2639 57.661 79.3399 57.7338 79.4284 57.7338C79.5168 57.7338 79.5928 57.661 79.5928 57.566Z" fill="white" stroke="white"/>
<path d="M79.535 55.2435C79.535 55.1645 79.472 55.1047 79.3995 55.1047C79.327 55.1047 79.2639 55.1645 79.2639 55.2435C79.2639 55.3224 79.327 55.3822 79.3995 55.3822C79.472 55.3822 79.535 55.3224 79.535 55.2435Z" fill="white" stroke="white"/>
<path d="M79.4776 52.9496C79.4776 52.9027 79.4404 52.8689 79.3998 52.8689C79.3592 52.8689 79.322 52.9027 79.322 52.9496C79.322 52.9965 79.3592 53.0303 79.3998 53.0303C79.4404 53.0303 79.4776 52.9965 79.4776 52.9496Z" fill="white" stroke="white"/>
<path d="M79.4484 50.9462C79.4484 50.9153 79.4241 50.8945 79.3995 50.8945C79.3748 50.8945 79.3506 50.9153 79.3506 50.9462C79.3506 50.977 79.3748 50.9978 79.3995 50.9978C79.4241 50.9978 79.4484 50.977 79.4484 50.9462Z" fill="white" stroke="white"/>
<path d="M79.3917 49.1442C79.3913 49.1451 79.3912 49.1458 79.3912 49.1461C79.3912 49.1463 79.3913 49.147 79.3917 49.1479C79.3921 49.1489 79.3926 49.1494 79.3929 49.1497C79.3932 49.1501 79.394 49.1508 79.3956 49.1514C79.3975 49.1523 79.3994 49.1525 79.4 49.1525C79.4007 49.1525 79.4026 49.1523 79.4045 49.1514C79.4061 49.1508 79.4069 49.1501 79.4072 49.1497C79.4075 49.1494 79.408 49.1489 79.4084 49.1479C79.4087 49.147 79.4089 49.1463 79.4089 49.1461C79.4089 49.1458 79.4087 49.1451 79.4084 49.1442C79.408 49.1433 79.4075 49.1427 79.4072 49.1424C79.4069 49.1421 79.4061 49.1414 79.4045 49.1407C79.4026 49.1399 79.4007 49.1396 79.4 49.1396C79.3994 49.1396 79.3975 49.1399 79.3956 49.1407C79.394 49.1414 79.3932 49.1421 79.3929 49.1424C79.3925 49.1427 79.3921 49.1433 79.3917 49.1442Z" fill="white" stroke="white"/>
<path d="M79.3332 47.4329C79.3332 47.4661 79.3607 47.4974 79.3999 47.4974C79.4391 47.4974 79.4666 47.4661 79.4666 47.4329C79.4666 47.3996 79.4391 47.3684 79.3999 47.3684C79.3607 47.3684 79.3332 47.3996 79.3332 47.4329Z" fill="white" stroke="white"/>
<path d="M79.2753 46.0397C79.2753 46.105 79.3286 46.1622 79.3997 46.1622C79.4708 46.1622 79.5242 46.105 79.5242 46.0397C79.5242 45.9744 79.4708 45.9171 79.3997 45.9171C79.3286 45.9171 79.2753 45.9744 79.2753 46.0397Z" fill="white" stroke="white"/>
<path d="M79.2466 44.675C79.2466 44.7564 79.3128 44.8266 79.3999 44.8266C79.4869 44.8266 79.5532 44.7564 79.5532 44.675C79.5532 44.5937 79.4869 44.5234 79.3999 44.5234C79.3128 44.5234 79.2466 44.5937 79.2466 44.675Z" fill="white" stroke="white"/>
<path d="M77.3683 65.2891C77.3683 65.1139 77.2276 64.9761 77.0594 64.9761C76.8911 64.9761 76.7505 65.1139 76.7505 65.2891C76.7505 65.4643 76.8911 65.6021 77.0594 65.6021C77.2276 65.6021 77.3683 65.4643 77.3683 65.2891Z" fill="white" stroke="white"/>
<path d="M77.3688 62.5603C77.3688 62.4011 77.2411 62.2764 77.0888 62.2764C76.9366 62.2764 76.8088 62.4011 76.8088 62.5603C76.8088 62.7195 76.9366 62.8442 77.0888 62.8442C77.2411 62.8442 77.3688 62.7195 77.3688 62.5603Z" fill="white" stroke="white"/>
<path d="M77.3111 60.0051C77.3111 59.878 77.2093 59.7793 77.0889 59.7793C76.9686 59.7793 76.8667 59.878 76.8667 60.0051C76.8667 60.1322 76.9686 60.231 77.0889 60.231C77.2093 60.231 77.3111 60.1322 77.3111 60.0051Z" fill="white" stroke="white"/>
<path d="M77.2818 57.566C77.2818 57.471 77.2058 57.3982 77.1173 57.3982C77.0289 57.3982 76.9529 57.471 76.9529 57.566C76.9529 57.661 77.0289 57.7338 77.1173 57.7338C77.2058 57.7338 77.2818 57.661 77.2818 57.566Z" fill="white" stroke="white"/>
<path d="M77.1954 55.2435C77.1954 55.1645 77.1324 55.1047 77.0599 55.1047C76.9874 55.1047 76.9243 55.1645 76.9243 55.2435C76.9243 55.3224 76.9874 55.3822 77.0599 55.3822C77.1324 55.3822 77.1954 55.3224 77.1954 55.2435Z" fill="white" stroke="white"/>
<path d="M77.1375 52.9496C77.1375 52.9027 77.1003 52.8689 77.0597 52.8689C77.0191 52.8689 76.9819 52.9027 76.9819 52.9496C76.9819 52.9965 77.0191 53.0303 77.0597 53.0303C77.1003 53.0303 77.1375 52.9965 77.1375 52.9496Z" fill="white" stroke="white"/>
<path d="M77.1085 50.9462C77.1085 50.9153 77.0843 50.8945 77.0596 50.8945C77.035 50.8945 77.0107 50.9153 77.0107 50.9462C77.0107 50.977 77.035 50.9978 77.0596 50.9978C77.0843 50.9978 77.1085 50.977 77.1085 50.9462Z" fill="white" stroke="white"/>
<path d="M77.0511 49.1442C77.0508 49.1451 77.0506 49.1458 77.0506 49.1461C77.0506 49.1463 77.0508 49.147 77.0511 49.1479C77.0515 49.1489 77.052 49.1494 77.0523 49.1497C77.0526 49.1501 77.0534 49.1508 77.055 49.1514C77.057 49.1523 77.0588 49.1525 77.0595 49.1525C77.0601 49.1525 77.062 49.1523 77.0639 49.1514C77.0655 49.1508 77.0663 49.1501 77.0666 49.1497C77.067 49.1494 77.0674 49.1489 77.0678 49.1479C77.0682 49.147 77.0683 49.1463 77.0683 49.1461C77.0683 49.1458 77.0682 49.1451 77.0678 49.1442C77.0674 49.1433 77.067 49.1427 77.0666 49.1424C77.0663 49.1421 77.0655 49.1414 77.0639 49.1407C77.062 49.1399 77.0601 49.1396 77.0595 49.1396C77.0588 49.1396 77.057 49.1399 77.055 49.1407C77.0534 49.1414 77.0526 49.1421 77.0523 49.1424C77.052 49.1427 77.0515 49.1433 77.0511 49.1442Z" fill="white" stroke="white"/>
<path d="M76.9929 47.4329C76.9929 47.4661 77.0204 47.4974 77.0596 47.4974C77.0987 47.4974 77.1262 47.4661 77.1262 47.4329C77.1262 47.3996 77.0987 47.3684 77.0596 47.3684C77.0204 47.3684 76.9929 47.3996 76.9929 47.4329Z" fill="white" stroke="white"/>
<path d="M76.9354 46.0397C76.9354 46.105 76.9888 46.1622 77.0599 46.1622C77.131 46.1622 77.1843 46.105 77.1843 46.0397C77.1843 45.9744 77.131 45.9171 77.0599 45.9171C76.9888 45.9171 76.9354 45.9744 76.9354 46.0397Z" fill="white" stroke="white"/>
<path d="M76.9067 44.675C76.9067 44.7564 76.973 44.8266 77.06 44.8266C77.1471 44.8266 77.2134 44.7564 77.2134 44.675C77.2134 44.5937 77.1471 44.5234 77.06 44.5234C76.973 44.5234 76.9067 44.5937 76.9067 44.675Z" fill="white" stroke="white"/>
<path d="M75.0575 65.2891C75.0575 65.1139 74.9168 64.9761 74.7486 64.9761C74.5804 64.9761 74.4397 65.1139 74.4397 65.2891C74.4397 65.4643 74.5804 65.6021 74.7486 65.6021C74.9168 65.6021 75.0575 65.4643 75.0575 65.2891Z" fill="white" stroke="white"/>
<path d="M75.0283 62.5603C75.0283 62.4011 74.9005 62.2764 74.7483 62.2764C74.596 62.2764 74.4683 62.4011 74.4683 62.5603C74.4683 62.7195 74.596 62.8442 74.7483 62.8442C74.9005 62.8442 75.0283 62.7195 75.0283 62.5603Z" fill="white" stroke="white"/>
<path d="M74.9708 60.0051C74.9708 59.878 74.869 59.7793 74.7486 59.7793C74.6282 59.7793 74.5264 59.878 74.5264 60.0051C74.5264 60.1322 74.6282 60.231 74.7486 60.231C74.869 60.231 74.9708 60.1322 74.9708 60.0051Z" fill="white" stroke="white"/>
<path d="M74.9422 57.566C74.9422 57.471 74.8662 57.3982 74.7777 57.3982C74.6893 57.3982 74.6133 57.471 74.6133 57.566C74.6133 57.661 74.6893 57.7338 74.7777 57.7338C74.8662 57.7338 74.9422 57.661 74.9422 57.566Z" fill="white" stroke="white"/>
<path d="M74.8844 55.2435C74.8844 55.1645 74.8213 55.1047 74.7488 55.1047C74.6763 55.1047 74.6133 55.1645 74.6133 55.2435C74.6133 55.3224 74.6763 55.3822 74.7488 55.3822C74.8213 55.3822 74.8844 55.3224 74.8844 55.2435Z" fill="white" stroke="white"/>
<path d="M74.8265 52.9496C74.8265 52.9027 74.7893 52.8689 74.7487 52.8689C74.7081 52.8689 74.6709 52.9027 74.6709 52.9496C74.6709 52.9965 74.7081 53.0303 74.7487 53.0303C74.7893 53.0303 74.8265 52.9965 74.8265 52.9496Z" fill="white" stroke="white"/>
<path d="M74.7977 50.9462C74.7977 50.9153 74.7735 50.8945 74.7488 50.8945C74.7242 50.8945 74.7 50.9153 74.7 50.9462C74.7 50.977 74.7242 50.9978 74.7488 50.9978C74.7735 50.9978 74.7977 50.977 74.7977 50.9462Z" fill="white" stroke="white"/>
<path d="M74.7406 49.1442C74.7402 49.1451 74.7401 49.1458 74.7401 49.1461C74.7401 49.1463 74.7402 49.147 74.7406 49.1479C74.741 49.1489 74.7414 49.1494 74.7418 49.1497C74.7421 49.1501 74.7429 49.1508 74.7445 49.1514C74.7464 49.1523 74.7483 49.1525 74.7489 49.1525C74.7496 49.1525 74.7514 49.1523 74.7534 49.1514C74.755 49.1508 74.7558 49.1501 74.7561 49.1497C74.7564 49.1494 74.7569 49.1489 74.7573 49.1479C74.7576 49.147 74.7577 49.1463 74.7578 49.1461C74.7577 49.1458 74.7576 49.1451 74.7573 49.1442C74.7569 49.1433 74.7564 49.1427 74.7561 49.1424C74.7558 49.1421 74.755 49.1414 74.7534 49.1407C74.7514 49.1399 74.7496 49.1396 74.7489 49.1396C74.7483 49.1396 74.7464 49.1399 74.7445 49.1407C74.7429 49.1414 74.7421 49.1421 74.7418 49.1424C74.7414 49.1427 74.741 49.1433 74.7406 49.1442Z" fill="white" stroke="white"/>
<path d="M74.6821 47.4329C74.6821 47.4661 74.7096 47.4974 74.7488 47.4974C74.7879 47.4974 74.8154 47.4661 74.8154 47.4329C74.8154 47.3996 74.7879 47.3684 74.7488 47.3684C74.7096 47.3684 74.6821 47.3996 74.6821 47.4329Z" fill="white" stroke="white"/>
<path d="M74.6239 46.0397C74.6239 46.105 74.6773 46.1622 74.7484 46.1622C74.8194 46.1622 74.8728 46.105 74.8728 46.0397C74.8728 45.9744 74.8194 45.9171 74.7484 45.9171C74.6773 45.9171 74.6239 45.9744 74.6239 46.0397Z" fill="white" stroke="white"/>
<path d="M74.5954 44.675C74.5954 44.7564 74.6617 44.8266 74.7488 44.8266C74.8358 44.8266 74.9021 44.7564 74.9021 44.675C74.9021 44.5937 74.8358 44.5234 74.7488 44.5234C74.6617 44.5234 74.5954 44.5937 74.5954 44.675Z" fill="white" stroke="white"/>
<path d="M72.7174 65.2891C72.7174 65.1139 72.5767 64.9761 72.4085 64.9761C72.2403 64.9761 72.0996 65.1139 72.0996 65.2891C72.0996 65.4643 72.2403 65.6021 72.4085 65.6021C72.5767 65.6021 72.7174 65.4643 72.7174 65.2891Z" fill="white" stroke="white"/>
<path d="M72.7177 62.5603C72.7177 62.4011 72.59 62.2764 72.4377 62.2764C72.2854 62.2764 72.1577 62.4011 72.1577 62.5603C72.1577 62.7195 72.2854 62.8442 72.4377 62.8442C72.59 62.8442 72.7177 62.7195 72.7177 62.5603Z" fill="white" stroke="white"/>
<path d="M72.6598 60.0051C72.6598 59.878 72.5579 59.7793 72.4376 59.7793C72.3172 59.7793 72.2153 59.878 72.2153 60.0051C72.2153 60.1322 72.3172 60.231 72.4376 60.231C72.5579 60.231 72.6598 60.1322 72.6598 60.0051Z" fill="white" stroke="white"/>
<path d="M72.6018 57.566C72.6018 57.471 72.5259 57.3982 72.4374 57.3982C72.3489 57.3982 72.2729 57.471 72.2729 57.566C72.2729 57.661 72.3489 57.7338 72.4374 57.7338C72.5259 57.7338 72.6018 57.661 72.6018 57.566Z" fill="white" stroke="white"/>
<path d="M72.5441 55.2435C72.5441 55.1645 72.481 55.1047 72.4085 55.1047C72.336 55.1047 72.2729 55.1645 72.2729 55.2435C72.2729 55.3224 72.336 55.3822 72.4085 55.3822C72.481 55.3822 72.5441 55.3224 72.5441 55.2435Z" fill="white" stroke="white"/>
<path d="M72.4869 52.9496C72.4869 52.9027 72.4497 52.8689 72.4091 52.8689C72.3685 52.8689 72.3313 52.9027 72.3313 52.9496C72.3313 52.9965 72.3685 53.0303 72.4091 53.0303C72.4497 53.0303 72.4869 52.9965 72.4869 52.9496Z" fill="white" stroke="white"/>
<path d="M72.4579 50.9462C72.4579 50.9153 72.4336 50.8945 72.409 50.8945C72.3844 50.8945 72.3601 50.9153 72.3601 50.9462C72.3601 50.977 72.3844 50.9978 72.409 50.9978C72.4336 50.9978 72.4579 50.977 72.4579 50.9462Z" fill="white" stroke="white"/>
<path d="M72.4005 49.1442C72.4001 49.1451 72.4 49.1458 72.4 49.1461C72.4 49.1463 72.4001 49.147 72.4005 49.1479C72.4009 49.1489 72.4013 49.1494 72.4017 49.1497C72.402 49.1501 72.4028 49.1508 72.4044 49.1514C72.4063 49.1523 72.4082 49.1525 72.4088 49.1525C72.4095 49.1525 72.4113 49.1523 72.4133 49.1514C72.4149 49.1508 72.4157 49.1501 72.416 49.1497C72.4163 49.1494 72.4168 49.1489 72.4172 49.1479C72.4175 49.147 72.4177 49.1463 72.4177 49.1461C72.4177 49.1458 72.4175 49.1451 72.4172 49.1442C72.4168 49.1433 72.4163 49.1427 72.416 49.1424C72.4157 49.1421 72.4149 49.1414 72.4133 49.1407C72.4113 49.1399 72.4095 49.1396 72.4088 49.1396C72.4082 49.1396 72.4063 49.1399 72.4044 49.1407C72.4028 49.1414 72.402 49.1421 72.4017 49.1424C72.4013 49.1427 72.4009 49.1433 72.4005 49.1442Z" fill="white" stroke="white"/>
<path d="M72.3418 47.4329C72.3418 47.4661 72.3693 47.4974 72.4084 47.4974C72.4476 47.4974 72.4751 47.4661 72.4751 47.4329C72.4751 47.3996 72.4476 47.3684 72.4084 47.3684C72.3693 47.3684 72.3418 47.3996 72.3418 47.4329Z" fill="white" stroke="white"/>
<path d="M72.2843 46.0396C72.2843 46.1049 72.3377 46.1621 72.4088 46.1621C72.4798 46.1621 72.5332 46.1049 72.5332 46.0396C72.5332 45.9742 72.4798 45.917 72.4088 45.917C72.3377 45.917 72.2843 45.9742 72.2843 46.0396Z" fill="white" stroke="white"/>
<path d="M72.2551 44.675C72.2551 44.7564 72.3214 44.8266 72.4084 44.8266C72.4955 44.8266 72.5618 44.7564 72.5618 44.675C72.5618 44.5937 72.4955 44.5234 72.4084 44.5234C72.3214 44.5234 72.2551 44.5937 72.2551 44.675Z" fill="white" stroke="white"/>
<path d="M70.3778 65.2891C70.3778 65.1139 70.2371 64.9761 70.0689 64.9761C69.9007 64.9761 69.76 65.1139 69.76 65.2891C69.76 65.4643 69.9007 65.6021 70.0689 65.6021C70.2371 65.6021 70.3778 65.4643 70.3778 65.2891Z" fill="white" stroke="white"/>
<path d="M70.3774 62.5603C70.3774 62.4011 70.2497 62.2764 70.0974 62.2764C69.9451 62.2764 69.8174 62.4011 69.8174 62.5603C69.8174 62.7195 69.9451 62.8442 70.0974 62.8442C70.2497 62.8442 70.3774 62.7195 70.3774 62.5603Z" fill="white" stroke="white"/>
<path d="M70.3199 60.0051C70.3199 59.878 70.2181 59.7793 70.0977 59.7793C69.9773 59.7793 69.8755 59.878 69.8755 60.0051C69.8755 60.1322 69.9773 60.231 70.0977 60.231C70.2181 60.231 70.3199 60.1322 70.3199 60.0051Z" fill="white" stroke="white"/>
<path d="M70.2618 57.566C70.2618 57.471 70.1858 57.3982 70.0973 57.3982C70.0088 57.3982 69.9329 57.471 69.9329 57.566C69.9329 57.661 70.0088 57.7338 70.0973 57.7338C70.1858 57.7338 70.2618 57.661 70.2618 57.566Z" fill="white" stroke="white"/>
<path d="M70.204 55.2435C70.204 55.1645 70.1409 55.1047 70.0684 55.1047C69.9959 55.1047 69.9329 55.1645 69.9329 55.2435C69.9329 55.3224 69.9959 55.3822 70.0684 55.3822C70.1409 55.3822 70.204 55.3224 70.204 55.2435Z" fill="white" stroke="white"/>
<path d="M70.146 52.9496C70.146 52.9027 70.1089 52.8689 70.0683 52.8689C70.0277 52.8689 69.9905 52.9027 69.9905 52.9496C69.9905 52.9965 70.0277 53.0303 70.0683 53.0303C70.1089 53.0303 70.146 52.9965 70.146 52.9496Z" fill="white" stroke="white"/>
<path d="M70.1173 50.9462C70.1173 50.9153 70.0931 50.8945 70.0684 50.8945C70.0438 50.8945 70.0195 50.9153 70.0195 50.9462C70.0195 50.977 70.0438 50.9978 70.0684 50.9978C70.0931 50.9978 70.1173 50.977 70.1173 50.9462Z" fill="white" stroke="white"/>
<path d="M70.0607 49.1442C70.0603 49.1451 70.0602 49.1458 70.0601 49.1461C70.0602 49.1463 70.0603 49.147 70.0607 49.1479C70.0611 49.1489 70.0615 49.1494 70.0618 49.1497C70.0622 49.1501 70.063 49.1508 70.0646 49.1514C70.0665 49.1523 70.0683 49.1525 70.069 49.1525C70.0697 49.1525 70.0715 49.1523 70.0734 49.1514C70.075 49.1508 70.0758 49.1501 70.0762 49.1497C70.0765 49.1494 70.0769 49.1489 70.0773 49.1479C70.0777 49.147 70.0778 49.1463 70.0779 49.1461C70.0778 49.1458 70.0777 49.1451 70.0773 49.1442C70.0769 49.1433 70.0765 49.1427 70.0762 49.1424C70.0758 49.1421 70.075 49.1414 70.0734 49.1407C70.0715 49.1399 70.0697 49.1396 70.069 49.1396C70.0683 49.1396 70.0665 49.1399 70.0645 49.1407C70.063 49.1414 70.0622 49.1421 70.0618 49.1424C70.0615 49.1427 70.0611 49.1433 70.0607 49.1442Z" fill="white" stroke="white"/>
<path d="M70.0024 47.4329C70.0024 47.4661 70.0299 47.4974 70.0691 47.4974C70.1083 47.4974 70.1357 47.4661 70.1357 47.4329C70.1357 47.3996 70.1083 47.3684 70.0691 47.3684C70.0299 47.3684 70.0024 47.3996 70.0024 47.4329Z" fill="white" stroke="white"/>
<path d="M69.9445 46.0396C69.9445 46.1049 69.9978 46.1621 70.0689 46.1621C70.14 46.1621 70.1934 46.1049 70.1934 46.0396C70.1934 45.9742 70.14 45.917 70.0689 45.917C69.9978 45.917 69.9445 45.9742 69.9445 46.0396Z" fill="white" stroke="white"/>
<path d="M69.9155 44.675C69.9155 44.7564 69.9818 44.8266 70.0688 44.8266C70.1559 44.8266 70.2222 44.7564 70.2222 44.675C70.2222 44.5937 70.1559 44.5234 70.0688 44.5234C69.9818 44.5234 69.9155 44.5937 69.9155 44.675Z" fill="white" stroke="white"/>
<path d="M68.0665 65.2891C68.0665 65.1139 67.9259 64.9761 67.7576 64.9761C67.5894 64.9761 67.4487 65.1139 67.4487 65.2891C67.4487 65.4643 67.5894 65.6021 67.7576 65.6021C67.9259 65.6021 68.0665 65.4643 68.0665 65.2891Z" fill="white" stroke="white"/>
<path d="M68.0378 62.5603C68.0378 62.4011 67.9101 62.2764 67.7578 62.2764C67.6055 62.2764 67.4778 62.4011 67.4778 62.5603C67.4778 62.7195 67.6055 62.8442 67.7578 62.8442C67.9101 62.8442 68.0378 62.7195 68.0378 62.5603Z" fill="white" stroke="white"/>
<path d="M67.9798 60.0051C67.9798 59.878 67.878 59.7793 67.7576 59.7793C67.6373 59.7793 67.5354 59.878 67.5354 60.0051C67.5354 60.1322 67.6373 60.231 67.7576 60.231C67.878 60.231 67.9798 60.1322 67.9798 60.0051Z" fill="white" stroke="white"/>
<path d="M67.9507 57.566C67.9507 57.471 67.8747 57.3982 67.7863 57.3982C67.6978 57.3982 67.6218 57.471 67.6218 57.566C67.6218 57.661 67.6978 57.7338 67.7863 57.7338C67.8747 57.7338 67.9507 57.661 67.9507 57.566Z" fill="white" stroke="white"/>
<path d="M67.8929 55.2435C67.8929 55.1645 67.8299 55.1047 67.7574 55.1047C67.6849 55.1047 67.6218 55.1645 67.6218 55.2435C67.6218 55.3224 67.6849 55.3822 67.7574 55.3822C67.8299 55.3822 67.8929 55.3224 67.8929 55.2435Z" fill="white" stroke="white"/>
<path d="M67.8355 52.9496C67.8355 52.9027 67.7983 52.8689 67.7577 52.8689C67.7171 52.8689 67.6799 52.9027 67.6799 52.9496C67.6799 52.9965 67.7171 53.0303 67.7577 53.0303C67.7983 53.0303 67.8355 52.9965 67.8355 52.9496Z" fill="white" stroke="white"/>
<path d="M67.8063 50.9462C67.8063 50.9153 67.782 50.8945 67.7574 50.8945C67.7327 50.8945 67.7085 50.9153 67.7085 50.9462C67.7085 50.977 67.7327 50.9978 67.7574 50.9978C67.782 50.9978 67.8063 50.977 67.8063 50.9462Z" fill="white" stroke="white"/>
<path d="M67.7489 49.1442C67.7485 49.1451 67.7484 49.1458 67.7484 49.1461C67.7484 49.1463 67.7485 49.147 67.7489 49.1479C67.7493 49.1489 67.7497 49.1494 67.7501 49.1497C67.7504 49.1501 67.7512 49.1508 67.7528 49.1514C67.7547 49.1523 67.7566 49.1525 67.7572 49.1525C67.7579 49.1525 67.7597 49.1523 67.7617 49.1514C67.7633 49.1508 67.7641 49.1501 67.7644 49.1497C67.7647 49.1494 67.7652 49.1489 67.7656 49.1479C67.7659 49.147 67.766 49.1463 67.7661 49.1461C67.766 49.1458 67.7659 49.1451 67.7656 49.1442C67.7652 49.1433 67.7647 49.1427 67.7644 49.1424C67.7641 49.1421 67.7633 49.1414 67.7617 49.1407C67.7597 49.1399 67.7579 49.1396 67.7572 49.1396C67.7566 49.1396 67.7547 49.1399 67.7528 49.1407C67.7512 49.1414 67.7504 49.1421 67.7501 49.1424C67.7497 49.1427 67.7493 49.1433 67.7489 49.1442Z" fill="white" stroke="white"/>
<path d="M67.6911 47.4329C67.6911 47.4661 67.7186 47.4974 67.7578 47.4974C67.797 47.4974 67.8245 47.4661 67.8245 47.4329C67.8245 47.3996 67.797 47.3684 67.7578 47.3684C67.7186 47.3684 67.6911 47.3996 67.6911 47.4329Z" fill="white" stroke="white"/>
<path d="M67.6332 46.0397C67.6332 46.105 67.6865 46.1622 67.7576 46.1622C67.8287 46.1622 67.8821 46.105 67.8821 46.0397C67.8821 45.9744 67.8287 45.9171 67.7576 45.9171C67.6865 45.9171 67.6332 45.9744 67.6332 46.0397Z" fill="white" stroke="white"/>
<path d="M67.6042 44.675C67.6042 44.7564 67.6705 44.8266 67.7576 44.8266C67.8446 44.8266 67.9109 44.7564 67.9109 44.675C67.9109 44.5937 67.8446 44.5234 67.7576 44.5234C67.6705 44.5234 67.6042 44.5937 67.6042 44.675Z" fill="white" stroke="white"/>
<path d="M65.7262 65.2891C65.7262 65.1139 65.5855 64.9761 65.4173 64.9761C65.2491 64.9761 65.1084 65.1139 65.1084 65.2891C65.1084 65.4643 65.2491 65.6021 65.4173 65.6021C65.5855 65.6021 65.7262 65.4643 65.7262 65.2891Z" fill="white" stroke="white"/>
<path d="M65.6975 62.5603C65.6975 62.4011 65.5697 62.2764 65.4175 62.2764C65.2652 62.2764 65.1375 62.4011 65.1375 62.5603C65.1375 62.7195 65.2652 62.8442 65.4175 62.8442C65.5697 62.8442 65.6975 62.7195 65.6975 62.5603Z" fill="white" stroke="white"/>
<path d="M65.6398 60.0051C65.6398 59.878 65.5379 59.7793 65.4175 59.7793C65.2972 59.7793 65.1953 59.878 65.1953 60.0051C65.1953 60.1322 65.2972 60.231 65.4175 60.231C65.5379 60.231 65.6398 60.1322 65.6398 60.0051Z" fill="white" stroke="white"/>
<path d="M65.6111 57.566C65.6111 57.471 65.5351 57.3982 65.4467 57.3982C65.3582 57.3982 65.2822 57.471 65.2822 57.566C65.2822 57.661 65.3582 57.7338 65.4467 57.7338C65.5351 57.7338 65.6111 57.661 65.6111 57.566Z" fill="white" stroke="white"/>
<path d="M65.5533 55.2435C65.5533 55.1645 65.4903 55.1047 65.4178 55.1047C65.3453 55.1047 65.2822 55.1645 65.2822 55.2435C65.2822 55.3224 65.3453 55.3822 65.4178 55.3822C65.4903 55.3822 65.5533 55.3224 65.5533 55.2435Z" fill="white" stroke="white"/>
<path d="M65.4954 52.9496C65.4954 52.9027 65.4582 52.8689 65.4176 52.8689C65.377 52.8689 65.3398 52.9027 65.3398 52.9496C65.3398 52.9965 65.377 53.0303 65.4176 53.0303C65.4582 53.0303 65.4954 52.9965 65.4954 52.9496Z" fill="white" stroke="white"/>
<path d="M65.4662 50.9462C65.4662 50.9153 65.4419 50.8945 65.4173 50.8945C65.3927 50.8945 65.3684 50.9153 65.3684 50.9462C65.3684 50.977 65.3927 50.9978 65.4173 50.9978C65.4419 50.9978 65.4662 50.977 65.4662 50.9462Z" fill="white" stroke="white"/>
<path d="M65.409 49.1442C65.4087 49.1451 65.4086 49.1458 65.4085 49.1461C65.4086 49.1463 65.4087 49.147 65.409 49.1479C65.4095 49.1489 65.4099 49.1494 65.4102 49.1497C65.4105 49.1501 65.4113 49.1508 65.4129 49.1514C65.4149 49.1523 65.4167 49.1525 65.4174 49.1525C65.418 49.1525 65.4199 49.1523 65.4218 49.1514C65.4234 49.1508 65.4242 49.1501 65.4246 49.1497C65.4249 49.1494 65.4253 49.1489 65.4257 49.1479C65.4261 49.147 65.4262 49.1463 65.4262 49.1461C65.4262 49.1458 65.4261 49.1451 65.4257 49.1442C65.4253 49.1433 65.4249 49.1427 65.4246 49.1424C65.4242 49.1421 65.4234 49.1414 65.4218 49.1407C65.4199 49.1399 65.418 49.1396 65.4174 49.1396C65.4167 49.1396 65.4149 49.1399 65.4129 49.1407C65.4113 49.1414 65.4105 49.1421 65.4102 49.1424C65.4099 49.1427 65.4095 49.1433 65.409 49.1442Z" fill="white" stroke="white"/>
<path d="M65.3506 47.4329C65.3506 47.4661 65.378 47.4974 65.4172 47.4974C65.4564 47.4974 65.4839 47.4661 65.4839 47.4329C65.4839 47.3996 65.4564 47.3684 65.4172 47.3684C65.378 47.3684 65.3506 47.3996 65.3506 47.4329Z" fill="white" stroke="white"/>
<path d="M65.2929 46.0397C65.2929 46.105 65.3462 46.1622 65.4173 46.1622C65.4884 46.1622 65.5417 46.105 65.5417 46.0397C65.5417 45.9744 65.4884 45.9171 65.4173 45.9171C65.3462 45.9171 65.2929 45.9743 65.2929 46.0397Z" fill="white" stroke="white"/>
<path d="M65.2644 44.675C65.2644 44.7564 65.3307 44.8266 65.4177 44.8266C65.5048 44.8266 65.571 44.7564 65.571 44.675C65.571 44.5937 65.5048 44.5234 65.4177 44.5234C65.3307 44.5234 65.2644 44.5937 65.2644 44.675Z" fill="white" stroke="white"/>
<path d="M63.3863 65.2892C63.3863 65.114 63.2457 64.9763 63.0774 64.9763C62.9092 64.9763 62.7686 65.114 62.7686 65.2892C62.7686 65.4644 62.9092 65.6022 63.0774 65.6022C63.2457 65.6022 63.3863 65.4644 63.3863 65.2892Z" fill="white" stroke="white"/>
<path d="M63.3862 62.5603C63.3862 62.4011 63.2585 62.2764 63.1062 62.2764C62.9539 62.2764 62.8262 62.4011 62.8262 62.5603C62.8262 62.7195 62.9539 62.8442 63.1062 62.8442C63.2585 62.8442 63.3862 62.7195 63.3862 62.5603Z" fill="white" stroke="white"/>
<path d="M63.3287 60.0051C63.3287 59.878 63.2269 59.7793 63.1065 59.7793C62.9861 59.7793 62.8843 59.878 62.8843 60.0051C62.8843 60.1322 62.9861 60.231 63.1065 60.231C63.2269 60.231 63.3287 60.1322 63.3287 60.0051Z" fill="white" stroke="white"/>
<path d="M63.2708 57.566C63.2708 57.471 63.1948 57.3982 63.1063 57.3982C63.0179 57.3982 62.9419 57.471 62.9419 57.566C62.9419 57.661 63.0179 57.7338 63.1063 57.7338C63.1948 57.7338 63.2708 57.661 63.2708 57.566Z" fill="white" stroke="white"/>
<path d="M63.213 55.2435C63.213 55.1645 63.15 55.1047 63.0775 55.1047C63.0049 55.1047 62.9419 55.1645 62.9419 55.2435C62.9419 55.3224 63.0049 55.3822 63.0775 55.3822C63.15 55.3822 63.213 55.3224 63.213 55.2435Z" fill="white" stroke="white"/>
<path d="M63.1558 52.9496C63.1558 52.9027 63.1186 52.8689 63.078 52.8689C63.0374 52.8689 63.0002 52.9027 63.0002 52.9496C63.0002 52.9965 63.0374 53.0303 63.078 53.0303C63.1186 53.0303 63.1558 52.9965 63.1558 52.9496Z" fill="white" stroke="white"/>
<path d="M63.1266 50.9462C63.1266 50.9153 63.1023 50.8945 63.0777 50.8945C63.0531 50.8945 63.0288 50.9153 63.0288 50.9462C63.0288 50.977 63.0531 50.9978 63.0777 50.9978C63.1023 50.9978 63.1266 50.977 63.1266 50.9462Z" fill="white" stroke="white"/>
<path d="M63.0692 49.1442C63.0688 49.1451 63.0687 49.1458 63.0687 49.1461C63.0687 49.1463 63.0688 49.147 63.0692 49.1479C63.0696 49.1489 63.07 49.1494 63.0704 49.1497C63.0707 49.1501 63.0715 49.1508 63.0731 49.1514C63.075 49.1523 63.0769 49.1525 63.0775 49.1525C63.0782 49.1525 63.08 49.1523 63.082 49.1514C63.0836 49.1508 63.0844 49.1501 63.0847 49.1497C63.085 49.1494 63.0855 49.1489 63.0859 49.1479C63.0862 49.147 63.0864 49.1463 63.0864 49.1461C63.0864 49.1458 63.0862 49.1451 63.0859 49.1442C63.0855 49.1433 63.085 49.1427 63.0847 49.1424C63.0844 49.1421 63.0836 49.1414 63.082 49.1407C63.08 49.1399 63.0782 49.1396 63.0775 49.1396C63.0769 49.1396 63.075 49.1399 63.0731 49.1407C63.0715 49.1414 63.0707 49.1421 63.0704 49.1424C63.07 49.1427 63.0696 49.1433 63.0692 49.1442Z" fill="white" stroke="white"/>
<path d="M63.0107 47.4329C63.0107 47.4661 63.0382 47.4974 63.0774 47.4974C63.1166 47.4974 63.144 47.4661 63.144 47.4329C63.144 47.3996 63.1166 47.3684 63.0774 47.3684C63.0382 47.3684 63.0107 47.3996 63.0107 47.4329Z" fill="white" stroke="white"/>
<path d="M62.9528 46.0397C62.9528 46.105 63.0061 46.1622 63.0772 46.1622C63.1483 46.1622 63.2017 46.105 63.2017 46.0397C63.2017 45.9743 63.1483 45.9171 63.0772 45.9171C63.0061 45.9171 62.9528 45.9743 62.9528 46.0397Z" fill="white" stroke="white"/>
<path d="M62.9243 44.675C62.9243 44.7564 62.9906 44.8266 63.0776 44.8266C63.1647 44.8266 63.231 44.7564 63.231 44.675C63.231 44.5937 63.1647 44.5234 63.0776 44.5234C62.9906 44.5234 62.9243 44.5937 62.9243 44.675Z" fill="white" stroke="white"/>
<mask id="path-89-outside-1_300_5009" maskUnits="userSpaceOnUse" x="0.345215" y="0.553223" width="94" height="88" fill="black">
<rect fill="white" x="0.345215" y="0.553223" width="94" height="88"/>
<path d="M85.3863 76.5009C85.6595 76.5009 85.8781 76.5009 86.0967 76.5009C87.9546 76.5009 89.8124 76.5009 91.6703 76.5009C92.5446 76.5009 92.9271 76.8304 92.9271 77.7091C92.9271 80.455 92.9271 83.2558 92.9271 86.0017C92.9271 86.7705 92.5992 87.1 91.8342 87.1C91.561 87.1 91.2878 87.1 91.0692 87.1C61.7259 87.1 32.4371 87.1 3.09379 87.1C2.87522 87.1 2.60201 87.1 2.38343 87.1C1.72772 87.1 1.34521 86.7705 1.34521 86.1664C1.34521 83.3107 1.34521 80.4001 1.34521 77.5443C1.34521 76.8853 1.78236 76.5558 2.49272 76.5558C3.69487 76.5558 4.89702 76.5558 6.15381 76.5558C6.15381 76.3361 6.15381 76.1714 6.15381 76.0066C6.15381 74.9083 6.15381 73.8648 6.15381 72.7665C6.15381 71.5034 6.80953 70.8993 8.01167 70.8993C9.43239 70.8993 10.8531 70.8993 12.2738 70.8993C12.4924 70.8993 12.6563 70.8993 12.9296 70.8993C12.9296 70.5149 12.9296 70.1854 12.9296 69.9657C12.3831 69.8009 11.8913 69.6911 11.4542 69.4714C11.2903 69.3616 11.2903 68.9222 11.2903 68.6477C11.2903 67.9886 11.5088 67.9337 12.9842 67.769C12.9842 66.8903 12.9296 66.0116 12.9842 65.078C12.9842 64.5288 12.8203 64.0895 12.4378 63.7051C7.51989 58.4879 9.15918 49.8109 15.6071 46.7355C16.0442 46.5158 16.3721 46.2412 16.5906 45.8019C17.7381 43.715 18.9403 41.6831 20.1424 39.5962C20.3064 39.3216 20.4703 38.9921 20.6342 38.6626C20.361 38.4978 20.1424 38.388 19.9785 38.2233C19.3228 37.7839 19.1589 37.2347 19.4867 36.5208C19.8146 35.9167 20.1424 35.3126 20.5249 34.7085C20.9074 34.1044 21.5085 33.9397 22.1642 34.2692C22.82 34.5987 23.421 34.9831 24.0767 35.3675C24.2953 35.5323 24.5685 35.6421 24.8418 35.8069C25.2243 35.0929 25.6068 34.4339 25.9893 33.8298C26.5903 32.7864 26.9728 32.6766 28.0111 33.2257C28.1203 33.2807 28.2296 33.3356 28.3936 33.3905C28.7761 32.6766 29.2132 32.0176 29.5957 31.3585C29.6503 31.2487 29.705 31.1389 29.8143 31.029C30.8525 29.8208 30.7979 28.5577 30.1968 27.1299C29.3225 24.9881 28.6121 22.7914 27.8471 20.5947C27.41 19.4414 27.5739 18.398 28.3389 17.4644C29.1586 16.5308 30.1968 16.2562 31.3989 16.5308C31.5629 16.5857 31.8361 16.5857 32 16.4758C34.8414 14.8283 37.7375 13.1808 40.579 11.5333C40.6336 11.5333 40.6336 11.4783 40.6883 11.4234C40.6336 11.3136 40.5243 11.2037 40.5243 11.039C40.3058 10.2152 41.18 10.3251 41.5079 9.99556C41.7265 9.77589 41.9997 9.66605 42.2183 10.1054C42.4368 10.5447 42.71 10.9292 42.9833 11.4234C44.0761 10.7644 45.169 10.1603 46.2619 9.55622C48.8301 8.07344 51.3983 6.59066 53.9665 5.10788C54.2944 4.94313 54.4037 4.77838 54.4037 4.33904C54.349 3.2956 54.8408 2.41692 55.7698 1.92266C56.7533 1.37348 57.7915 1.4284 58.6658 2.14233C59.4855 2.80134 59.9226 3.68002 59.6494 4.72346C59.4855 5.32755 59.5948 5.7669 59.9226 6.26116C60.3598 6.97509 60.7423 7.74393 61.1794 8.45786C61.2887 8.62262 61.5073 8.73245 61.6712 8.73245C64.8405 8.29311 67.4087 10.3251 67.6273 13.5103C67.6273 13.73 67.7366 14.0046 67.8459 14.1693C68.1737 14.7734 68.5562 15.3775 68.8841 15.9816C69.2666 16.6406 69.2666 16.7504 68.6109 17.2447C69.1573 18.2332 69.7038 19.2217 70.3048 20.2103C70.3595 20.3201 70.6327 20.375 70.742 20.3201C71.1791 20.1553 71.4523 20.3201 71.6163 20.7045C71.7802 21.034 71.9441 21.1988 72.3813 21.1988C72.5998 21.1988 72.9277 21.4734 73.0916 21.693C73.3102 22.0225 73.5288 22.1324 73.9113 22.1873C76.2609 22.407 78.5559 22.6266 80.9056 22.8463C81.3974 22.9012 81.7252 23.1209 81.8892 23.6151C82.8181 26.0315 83.8017 28.4479 84.7306 30.8643C85.1131 31.8528 84.8399 32.402 83.911 32.8413C83.4738 33.0061 83.2006 32.8413 82.9274 32.5667C81.7799 31.2487 80.6324 29.8758 79.4849 28.5028C79.157 28.1184 78.8291 28.0086 78.3374 27.9536C76.6434 27.7889 75.2227 28.2282 73.802 29.1618C72.108 30.2602 70.3595 31.1938 68.6109 32.1823C68.3923 32.2921 68.2284 32.5118 68.1191 32.6766C67.7366 33.3356 67.2995 33.9946 66.9716 34.7085C66.8623 34.9282 66.8077 35.3126 66.9169 35.5323C67.4634 37.2347 68.1191 38.8823 68.6655 40.5847C68.9387 41.3536 68.7748 41.6831 68.0098 41.9577C67.0809 42.2872 66.9169 42.2323 66.3705 41.4634C64.7859 39.4864 63.2559 37.4544 61.6712 35.5323C61.2341 34.9831 61.2341 34.4889 61.5073 33.8848C62.4909 31.8528 63.4198 29.7659 64.3487 27.6791C64.458 27.4594 64.458 27.1299 64.3487 26.9102C64.0755 26.416 64.0755 25.9766 64.5127 25.5373C64.4034 25.3176 64.2941 25.1528 64.1848 24.9332C63.9662 24.6037 64.0209 24.3291 64.3487 24.1094C64.458 23.9996 64.5127 23.7799 64.458 23.6701C63.9116 22.6815 63.3651 21.693 62.7641 20.7594C62.7094 20.8143 62.7094 20.8693 62.6548 20.9242C62.3269 20.8143 61.9444 20.8143 61.6712 20.5947C61.398 20.375 61.2887 19.9906 61.1248 19.6611C60.4144 19.6611 59.868 20.9791 59.103 19.716C58.2287 20.2103 57.409 20.7045 56.5894 21.1988C56.4801 21.2537 56.4801 21.4734 56.4801 21.5832C56.5894 21.8029 56.7533 22.0225 56.8626 22.2971C57.1905 22.9012 57.0812 23.2307 56.4801 23.6151C55.879 23.9996 55.4965 23.8897 55.1687 23.3406C54.0758 21.4734 52.983 19.5512 51.8901 17.684C51.4529 16.9701 51.0704 16.2562 50.6333 15.5422C50.3054 14.9382 50.3601 14.6086 51.0158 14.2242C51.6169 13.8947 51.9994 13.9496 52.3272 14.5537C52.4912 14.8283 52.6551 15.1578 52.8737 15.4873C53.748 14.9931 54.6222 14.4988 55.4419 14.0046C55.4965 13.9496 55.4965 13.73 55.4965 13.5652C55.3873 13.1808 55.4965 12.9611 55.8244 12.7964C56.3162 12.5218 56.7533 12.1923 57.2998 11.9726C58.0101 11.6431 58.4473 11.0939 58.8298 10.4898C58.8844 10.38 58.8844 10.1603 58.8298 10.0505C58.338 9.17179 57.9555 8.12836 57.2451 7.41443C56.7533 6.92017 55.879 6.75541 55.114 6.53574C55.0048 6.15132 54.8955 6.31607 54.7315 6.37099C51.1797 8.45786 47.6279 10.4898 44.0761 12.5767C43.9668 12.6316 43.9122 12.6865 43.7483 12.7964C43.9668 13.2357 44.1854 13.6201 44.4586 14.0046C44.6772 14.3341 44.6226 14.5537 44.2947 14.7185C44.1308 14.8283 43.9668 14.8832 43.8029 14.9931C43.0926 15.4324 43.0926 15.4324 42.5461 14.6636C39.9233 16.2013 37.2457 17.739 34.5136 19.3316C34.8961 19.8258 35.2786 20.2652 35.6611 20.7045C36.4261 21.5832 37.1911 22.5168 37.9561 23.3955C38.0654 23.5053 38.3932 23.6151 38.5025 23.5602C39.4315 23.066 40.3058 22.5168 41.2893 21.9676C41.1254 21.6381 40.9615 21.3086 40.7975 21.034C40.4697 20.4299 40.5243 20.1004 41.18 19.716C41.8358 19.3316 42.2183 19.3865 42.6008 20.0455C43.7483 22.0225 44.8411 23.9447 45.9886 25.9217C46.3711 26.5807 46.7536 27.2397 47.1361 27.8987C47.464 28.4479 47.3547 28.7774 46.7536 29.1069C46.0979 29.4913 45.7154 29.4364 45.3876 28.8872C44.7865 27.9536 44.7865 27.9536 43.8029 28.5028C43.0379 28.9422 42.2183 29.3815 41.4533 29.8758C41.2347 29.9856 41.0708 30.2602 41.0161 30.4799C40.6336 31.6331 39.9779 32.5118 38.9943 33.1708C38.885 33.2807 38.7211 33.3356 38.6665 33.4454C37.7922 34.9282 36.9725 36.3561 36.0982 37.8388C36.2622 37.9487 36.4261 38.0585 36.5354 38.1134C37.355 38.6077 37.519 39.1019 36.9725 39.9806C36.59 40.6396 36.2075 41.3536 35.7704 42.1224C36.59 42.6167 37.355 43.056 38.12 43.4954C39.1582 44.0994 39.3222 44.5937 38.7211 45.6371C38.5025 46.0765 38.2293 46.5158 38.0107 46.9003C37.4643 47.8339 36.9179 47.9437 36.0436 47.4494C35.8797 47.3396 35.7157 47.2847 35.4972 47.1748C35.0054 47.9986 34.5682 48.8224 34.0764 49.5912C33.0929 51.2937 32.1639 52.9412 31.1804 54.6437C31.0711 54.8084 31.0164 55.083 31.0164 55.2477C31.2896 58.5428 30.3061 61.3985 28.0657 63.8149C27.7925 64.0895 27.6832 64.3641 27.6832 64.7485C27.7378 65.737 27.6832 66.7255 27.6832 67.7141C28.4482 67.769 29.4318 67.5493 29.3771 68.8673C29.3225 70.0206 28.3936 69.6911 27.7378 69.8009C27.7378 70.1854 27.7378 70.5149 27.7378 70.8993C28.5575 70.8993 29.3225 70.8993 30.0875 70.8993C31.0164 70.8993 31.9454 70.8993 32.8743 70.8993C33.8032 70.8993 34.4589 71.5583 34.4589 72.4919C34.4589 73.6452 34.4589 74.7435 34.4589 75.8968C34.4589 76.1165 34.4589 76.2812 34.5136 76.5558C42.0543 76.5558 49.5404 76.5558 57.0812 76.5558C57.0812 75.2378 57.0812 73.9198 57.0812 72.4919C56.6987 72.4919 56.3708 72.4919 55.9883 72.4919C55.3873 72.4919 55.114 72.2173 55.114 71.6132C55.0594 70.8444 55.3326 70.5149 55.9337 70.4599C56.0976 70.4599 56.2069 70.4599 56.3708 70.4599C66.2612 70.4599 76.2063 70.4599 86.0967 70.4599C86.971 70.4599 87.2988 70.7345 87.3535 71.3935C87.4081 72.1624 87.0803 72.4919 86.3153 72.4919C86.042 72.4919 85.7142 72.4919 85.3863 72.4919C85.3863 73.8099 85.3863 75.1279 85.3863 76.5009ZM29.3771 56.3461C29.3771 51.2937 25.3882 47.2298 20.361 47.2298C15.3339 47.2298 11.2356 51.3486 11.2903 56.3461C11.2903 61.3436 15.3339 65.4075 20.361 65.4075C25.3335 65.4624 29.3771 61.3985 29.3771 56.3461ZM18.9949 45.4724C20.3064 45.5822 21.5632 45.6921 22.7653 45.8568C23.8582 46.0216 23.8582 46.0765 24.4046 45.1429C25.0603 44.0445 25.6614 42.9462 26.3171 41.7929C25.0057 41.0241 23.6942 40.2552 22.3828 39.5413C21.2353 41.5732 20.0878 43.5503 18.9949 45.4724ZM40.1418 28.9422C40.1418 26.6356 38.3932 24.8233 36.0982 24.8233C33.8579 24.8233 32 26.6356 32 28.8872C32 31.1389 33.8032 32.9512 36.0436 32.9512C38.3386 33.0061 40.1418 31.1938 40.1418 28.9422ZM62.6001 17.6291C64.7859 17.6291 66.6437 15.7619 66.6437 13.5652C66.6437 11.3136 64.8405 9.5013 62.5455 9.44638C60.3598 9.44638 58.5566 11.2587 58.5566 13.5103C58.5019 15.7619 60.3598 17.6291 62.6001 17.6291ZM63.9116 19.7709C64.5127 20.8693 65.1684 21.9127 65.7694 23.066C66.8623 22.4619 67.8459 21.8578 68.8295 21.2537C68.9387 21.1988 68.9934 20.9242 68.9387 20.8693C68.3923 19.8807 67.7912 18.8922 67.2448 17.8488C66.1519 18.4529 65.0591 19.057 63.9116 19.7709ZM55.4965 19.8807C56.4801 19.3316 57.3544 18.7824 58.2833 18.2332C57.6276 17.0799 56.9719 15.9816 56.3708 14.8832C55.3873 15.4324 54.513 15.9816 53.584 16.5308C54.2397 17.684 54.8408 18.7275 55.4965 19.8807ZM75.332 25.2627C75.332 24.0545 74.3484 23.066 73.2009 23.066C71.9988 23.066 71.0152 24.0545 71.0152 25.2627C71.0152 26.416 71.9988 27.4594 73.2009 27.4594C74.3484 27.4594 75.332 26.4709 75.332 25.2627ZM67.3541 26.4709C66.1519 26.4709 65.1684 27.4594 65.223 28.6676C65.223 29.8758 66.2066 30.8094 67.3541 30.8094C68.5562 30.8094 69.5398 29.8208 69.5398 28.6127C69.5398 27.4045 68.6109 26.4709 67.3541 26.4709ZM32.6011 19.4414C32.6011 18.343 31.7814 17.4644 30.6886 17.4094C29.5957 17.4094 28.6668 18.2881 28.6668 19.3865C28.6668 20.4848 29.5411 21.3635 30.6339 21.3635C31.7814 21.3635 32.6011 20.5398 32.6011 19.4414ZM56.9719 5.54723C57.7369 5.54723 58.3926 4.94313 58.4473 4.11937C58.4473 3.35052 57.7916 2.63659 56.9719 2.63659C56.2069 2.63659 55.5512 3.2956 55.5512 4.06445C55.5512 4.88821 56.2069 5.54723 56.9719 5.54723Z"/>
</mask>
<path d="M85.3863 76.5009C85.6595 76.5009 85.8781 76.5009 86.0967 76.5009C87.9546 76.5009 89.8124 76.5009 91.6703 76.5009C92.5446 76.5009 92.9271 76.8304 92.9271 77.7091C92.9271 80.455 92.9271 83.2558 92.9271 86.0017C92.9271 86.7705 92.5992 87.1 91.8342 87.1C91.561 87.1 91.2878 87.1 91.0692 87.1C61.7259 87.1 32.4371 87.1 3.09379 87.1C2.87522 87.1 2.60201 87.1 2.38343 87.1C1.72772 87.1 1.34521 86.7705 1.34521 86.1664C1.34521 83.3107 1.34521 80.4001 1.34521 77.5443C1.34521 76.8853 1.78236 76.5558 2.49272 76.5558C3.69487 76.5558 4.89702 76.5558 6.15381 76.5558C6.15381 76.3361 6.15381 76.1714 6.15381 76.0066C6.15381 74.9083 6.15381 73.8648 6.15381 72.7665C6.15381 71.5034 6.80953 70.8993 8.01167 70.8993C9.43239 70.8993 10.8531 70.8993 12.2738 70.8993C12.4924 70.8993 12.6563 70.8993 12.9296 70.8993C12.9296 70.5149 12.9296 70.1854 12.9296 69.9657C12.3831 69.8009 11.8913 69.6911 11.4542 69.4714C11.2903 69.3616 11.2903 68.9222 11.2903 68.6477C11.2903 67.9886 11.5088 67.9337 12.9842 67.769C12.9842 66.8903 12.9296 66.0116 12.9842 65.078C12.9842 64.5288 12.8203 64.0895 12.4378 63.7051C7.51989 58.4879 9.15918 49.8109 15.6071 46.7355C16.0442 46.5158 16.3721 46.2412 16.5906 45.8019C17.7381 43.715 18.9403 41.6831 20.1424 39.5962C20.3064 39.3216 20.4703 38.9921 20.6342 38.6626C20.361 38.4978 20.1424 38.388 19.9785 38.2233C19.3228 37.7839 19.1589 37.2347 19.4867 36.5208C19.8146 35.9167 20.1424 35.3126 20.5249 34.7085C20.9074 34.1044 21.5085 33.9397 22.1642 34.2692C22.82 34.5987 23.421 34.9831 24.0767 35.3675C24.2953 35.5323 24.5685 35.6421 24.8418 35.8069C25.2243 35.0929 25.6068 34.4339 25.9893 33.8298C26.5903 32.7864 26.9728 32.6766 28.0111 33.2257C28.1203 33.2807 28.2296 33.3356 28.3936 33.3905C28.7761 32.6766 29.2132 32.0176 29.5957 31.3585C29.6503 31.2487 29.705 31.1389 29.8143 31.029C30.8525 29.8208 30.7979 28.5577 30.1968 27.1299C29.3225 24.9881 28.6121 22.7914 27.8471 20.5947C27.41 19.4414 27.5739 18.398 28.3389 17.4644C29.1586 16.5308 30.1968 16.2562 31.3989 16.5308C31.5629 16.5857 31.8361 16.5857 32 16.4758C34.8414 14.8283 37.7375 13.1808 40.579 11.5333C40.6336 11.5333 40.6336 11.4783 40.6883 11.4234C40.6336 11.3136 40.5243 11.2037 40.5243 11.039C40.3058 10.2152 41.18 10.3251 41.5079 9.99556C41.7265 9.77589 41.9997 9.66605 42.2183 10.1054C42.4368 10.5447 42.71 10.9292 42.9833 11.4234C44.0761 10.7644 45.169 10.1603 46.2619 9.55622C48.8301 8.07344 51.3983 6.59066 53.9665 5.10788C54.2944 4.94313 54.4037 4.77838 54.4037 4.33904C54.349 3.2956 54.8408 2.41692 55.7698 1.92266C56.7533 1.37348 57.7915 1.4284 58.6658 2.14233C59.4855 2.80134 59.9226 3.68002 59.6494 4.72346C59.4855 5.32755 59.5948 5.7669 59.9226 6.26116C60.3598 6.97509 60.7423 7.74393 61.1794 8.45786C61.2887 8.62262 61.5073 8.73245 61.6712 8.73245C64.8405 8.29311 67.4087 10.3251 67.6273 13.5103C67.6273 13.73 67.7366 14.0046 67.8459 14.1693C68.1737 14.7734 68.5562 15.3775 68.8841 15.9816C69.2666 16.6406 69.2666 16.7504 68.6109 17.2447C69.1573 18.2332 69.7038 19.2217 70.3048 20.2103C70.3595 20.3201 70.6327 20.375 70.742 20.3201C71.1791 20.1553 71.4523 20.3201 71.6163 20.7045C71.7802 21.034 71.9441 21.1988 72.3813 21.1988C72.5998 21.1988 72.9277 21.4734 73.0916 21.693C73.3102 22.0225 73.5288 22.1324 73.9113 22.1873C76.2609 22.407 78.5559 22.6266 80.9056 22.8463C81.3974 22.9012 81.7252 23.1209 81.8892 23.6151C82.8181 26.0315 83.8017 28.4479 84.7306 30.8643C85.1131 31.8528 84.8399 32.402 83.911 32.8413C83.4738 33.0061 83.2006 32.8413 82.9274 32.5667C81.7799 31.2487 80.6324 29.8758 79.4849 28.5028C79.157 28.1184 78.8291 28.0086 78.3374 27.9536C76.6434 27.7889 75.2227 28.2282 73.802 29.1618C72.108 30.2602 70.3595 31.1938 68.6109 32.1823C68.3923 32.2921 68.2284 32.5118 68.1191 32.6766C67.7366 33.3356 67.2995 33.9946 66.9716 34.7085C66.8623 34.9282 66.8077 35.3126 66.9169 35.5323C67.4634 37.2347 68.1191 38.8823 68.6655 40.5847C68.9387 41.3536 68.7748 41.6831 68.0098 41.9577C67.0809 42.2872 66.9169 42.2323 66.3705 41.4634C64.7859 39.4864 63.2559 37.4544 61.6712 35.5323C61.2341 34.9831 61.2341 34.4889 61.5073 33.8848C62.4909 31.8528 63.4198 29.7659 64.3487 27.6791C64.458 27.4594 64.458 27.1299 64.3487 26.9102C64.0755 26.416 64.0755 25.9766 64.5127 25.5373C64.4034 25.3176 64.2941 25.1528 64.1848 24.9332C63.9662 24.6037 64.0209 24.3291 64.3487 24.1094C64.458 23.9996 64.5127 23.7799 64.458 23.6701C63.9116 22.6815 63.3651 21.693 62.7641 20.7594C62.7094 20.8143 62.7094 20.8693 62.6548 20.9242C62.3269 20.8143 61.9444 20.8143 61.6712 20.5947C61.398 20.375 61.2887 19.9906 61.1248 19.6611C60.4144 19.6611 59.868 20.9791 59.103 19.716C58.2287 20.2103 57.409 20.7045 56.5894 21.1988C56.4801 21.2537 56.4801 21.4734 56.4801 21.5832C56.5894 21.8029 56.7533 22.0225 56.8626 22.2971C57.1905 22.9012 57.0812 23.2307 56.4801 23.6151C55.879 23.9996 55.4965 23.8897 55.1687 23.3406C54.0758 21.4734 52.983 19.5512 51.8901 17.684C51.4529 16.9701 51.0704 16.2562 50.6333 15.5422C50.3054 14.9382 50.3601 14.6086 51.0158 14.2242C51.6169 13.8947 51.9994 13.9496 52.3272 14.5537C52.4912 14.8283 52.6551 15.1578 52.8737 15.4873C53.748 14.9931 54.6222 14.4988 55.4419 14.0046C55.4965 13.9496 55.4965 13.73 55.4965 13.5652C55.3873 13.1808 55.4965 12.9611 55.8244 12.7964C56.3162 12.5218 56.7533 12.1923 57.2998 11.9726C58.0101 11.6431 58.4473 11.0939 58.8298 10.4898C58.8844 10.38 58.8844 10.1603 58.8298 10.0505C58.338 9.17179 57.9555 8.12836 57.2451 7.41443C56.7533 6.92017 55.879 6.75541 55.114 6.53574C55.0048 6.15132 54.8955 6.31607 54.7315 6.37099C51.1797 8.45786 47.6279 10.4898 44.0761 12.5767C43.9668 12.6316 43.9122 12.6865 43.7483 12.7964C43.9668 13.2357 44.1854 13.6201 44.4586 14.0046C44.6772 14.3341 44.6226 14.5537 44.2947 14.7185C44.1308 14.8283 43.9668 14.8832 43.8029 14.9931C43.0926 15.4324 43.0926 15.4324 42.5461 14.6636C39.9233 16.2013 37.2457 17.739 34.5136 19.3316C34.8961 19.8258 35.2786 20.2652 35.6611 20.7045C36.4261 21.5832 37.1911 22.5168 37.9561 23.3955C38.0654 23.5053 38.3932 23.6151 38.5025 23.5602C39.4315 23.066 40.3058 22.5168 41.2893 21.9676C41.1254 21.6381 40.9615 21.3086 40.7975 21.034C40.4697 20.4299 40.5243 20.1004 41.18 19.716C41.8358 19.3316 42.2183 19.3865 42.6008 20.0455C43.7483 22.0225 44.8411 23.9447 45.9886 25.9217C46.3711 26.5807 46.7536 27.2397 47.1361 27.8987C47.464 28.4479 47.3547 28.7774 46.7536 29.1069C46.0979 29.4913 45.7154 29.4364 45.3876 28.8872C44.7865 27.9536 44.7865 27.9536 43.8029 28.5028C43.0379 28.9422 42.2183 29.3815 41.4533 29.8758C41.2347 29.9856 41.0708 30.2602 41.0161 30.4799C40.6336 31.6331 39.9779 32.5118 38.9943 33.1708C38.885 33.2807 38.7211 33.3356 38.6665 33.4454C37.7922 34.9282 36.9725 36.3561 36.0982 37.8388C36.2622 37.9487 36.4261 38.0585 36.5354 38.1134C37.355 38.6077 37.519 39.1019 36.9725 39.9806C36.59 40.6396 36.2075 41.3536 35.7704 42.1224C36.59 42.6167 37.355 43.056 38.12 43.4954C39.1582 44.0994 39.3222 44.5937 38.7211 45.6371C38.5025 46.0765 38.2293 46.5158 38.0107 46.9003C37.4643 47.8339 36.9179 47.9437 36.0436 47.4494C35.8797 47.3396 35.7157 47.2847 35.4972 47.1748C35.0054 47.9986 34.5682 48.8224 34.0764 49.5912C33.0929 51.2937 32.1639 52.9412 31.1804 54.6437C31.0711 54.8084 31.0164 55.083 31.0164 55.2477C31.2896 58.5428 30.3061 61.3985 28.0657 63.8149C27.7925 64.0895 27.6832 64.3641 27.6832 64.7485C27.7378 65.737 27.6832 66.7255 27.6832 67.7141C28.4482 67.769 29.4318 67.5493 29.3771 68.8673C29.3225 70.0206 28.3936 69.6911 27.7378 69.8009C27.7378 70.1854 27.7378 70.5149 27.7378 70.8993C28.5575 70.8993 29.3225 70.8993 30.0875 70.8993C31.0164 70.8993 31.9454 70.8993 32.8743 70.8993C33.8032 70.8993 34.4589 71.5583 34.4589 72.4919C34.4589 73.6452 34.4589 74.7435 34.4589 75.8968C34.4589 76.1165 34.4589 76.2812 34.5136 76.5558C42.0543 76.5558 49.5404 76.5558 57.0812 76.5558C57.0812 75.2378 57.0812 73.9198 57.0812 72.4919C56.6987 72.4919 56.3708 72.4919 55.9883 72.4919C55.3873 72.4919 55.114 72.2173 55.114 71.6132C55.0594 70.8444 55.3326 70.5149 55.9337 70.4599C56.0976 70.4599 56.2069 70.4599 56.3708 70.4599C66.2612 70.4599 76.2063 70.4599 86.0967 70.4599C86.971 70.4599 87.2988 70.7345 87.3535 71.3935C87.4081 72.1624 87.0803 72.4919 86.3153 72.4919C86.042 72.4919 85.7142 72.4919 85.3863 72.4919C85.3863 73.8099 85.3863 75.1279 85.3863 76.5009ZM29.3771 56.3461C29.3771 51.2937 25.3882 47.2298 20.361 47.2298C15.3339 47.2298 11.2356 51.3486 11.2903 56.3461C11.2903 61.3436 15.3339 65.4075 20.361 65.4075C25.3335 65.4624 29.3771 61.3985 29.3771 56.3461ZM18.9949 45.4724C20.3064 45.5822 21.5632 45.6921 22.7653 45.8568C23.8582 46.0216 23.8582 46.0765 24.4046 45.1429C25.0603 44.0445 25.6614 42.9462 26.3171 41.7929C25.0057 41.0241 23.6942 40.2552 22.3828 39.5413C21.2353 41.5732 20.0878 43.5503 18.9949 45.4724ZM40.1418 28.9422C40.1418 26.6356 38.3932 24.8233 36.0982 24.8233C33.8579 24.8233 32 26.6356 32 28.8872C32 31.1389 33.8032 32.9512 36.0436 32.9512C38.3386 33.0061 40.1418 31.1938 40.1418 28.9422ZM62.6001 17.6291C64.7859 17.6291 66.6437 15.7619 66.6437 13.5652C66.6437 11.3136 64.8405 9.5013 62.5455 9.44638C60.3598 9.44638 58.5566 11.2587 58.5566 13.5103C58.5019 15.7619 60.3598 17.6291 62.6001 17.6291ZM63.9116 19.7709C64.5127 20.8693 65.1684 21.9127 65.7694 23.066C66.8623 22.4619 67.8459 21.8578 68.8295 21.2537C68.9387 21.1988 68.9934 20.9242 68.9387 20.8693C68.3923 19.8807 67.7912 18.8922 67.2448 17.8488C66.1519 18.4529 65.0591 19.057 63.9116 19.7709ZM55.4965 19.8807C56.4801 19.3316 57.3544 18.7824 58.2833 18.2332C57.6276 17.0799 56.9719 15.9816 56.3708 14.8832C55.3873 15.4324 54.513 15.9816 53.584 16.5308C54.2397 17.684 54.8408 18.7275 55.4965 19.8807ZM75.332 25.2627C75.332 24.0545 74.3484 23.066 73.2009 23.066C71.9988 23.066 71.0152 24.0545 71.0152 25.2627C71.0152 26.416 71.9988 27.4594 73.2009 27.4594C74.3484 27.4594 75.332 26.4709 75.332 25.2627ZM67.3541 26.4709C66.1519 26.4709 65.1684 27.4594 65.223 28.6676C65.223 29.8758 66.2066 30.8094 67.3541 30.8094C68.5562 30.8094 69.5398 29.8208 69.5398 28.6127C69.5398 27.4045 68.6109 26.4709 67.3541 26.4709ZM32.6011 19.4414C32.6011 18.343 31.7814 17.4644 30.6886 17.4094C29.5957 17.4094 28.6668 18.2881 28.6668 19.3865C28.6668 20.4848 29.5411 21.3635 30.6339 21.3635C31.7814 21.3635 32.6011 20.5398 32.6011 19.4414ZM56.9719 5.54723C57.7369 5.54723 58.3926 4.94313 58.4473 4.11937C58.4473 3.35052 57.7916 2.63659 56.9719 2.63659C56.2069 2.63659 55.5512 3.2956 55.5512 4.06445C55.5512 4.88821 56.2069 5.54723 56.9719 5.54723Z" fill="white"/>
<path d="M85.3863 76.5009C85.6595 76.5009 85.8781 76.5009 86.0967 76.5009C87.9546 76.5009 89.8124 76.5009 91.6703 76.5009C92.5446 76.5009 92.9271 76.8304 92.9271 77.7091C92.9271 80.455 92.9271 83.2558 92.9271 86.0017C92.9271 86.7705 92.5992 87.1 91.8342 87.1C91.561 87.1 91.2878 87.1 91.0692 87.1C61.7259 87.1 32.4371 87.1 3.09379 87.1C2.87522 87.1 2.60201 87.1 2.38343 87.1C1.72772 87.1 1.34521 86.7705 1.34521 86.1664C1.34521 83.3107 1.34521 80.4001 1.34521 77.5443C1.34521 76.8853 1.78236 76.5558 2.49272 76.5558C3.69487 76.5558 4.89702 76.5558 6.15381 76.5558C6.15381 76.3361 6.15381 76.1714 6.15381 76.0066C6.15381 74.9083 6.15381 73.8648 6.15381 72.7665C6.15381 71.5034 6.80953 70.8993 8.01167 70.8993C9.43239 70.8993 10.8531 70.8993 12.2738 70.8993C12.4924 70.8993 12.6563 70.8993 12.9296 70.8993C12.9296 70.5149 12.9296 70.1854 12.9296 69.9657C12.3831 69.8009 11.8913 69.6911 11.4542 69.4714C11.2903 69.3616 11.2903 68.9222 11.2903 68.6477C11.2903 67.9886 11.5088 67.9337 12.9842 67.769C12.9842 66.8903 12.9296 66.0116 12.9842 65.078C12.9842 64.5288 12.8203 64.0895 12.4378 63.7051C7.51989 58.4879 9.15918 49.8109 15.6071 46.7355C16.0442 46.5158 16.3721 46.2412 16.5906 45.8019C17.7381 43.715 18.9403 41.6831 20.1424 39.5962C20.3064 39.3216 20.4703 38.9921 20.6342 38.6626C20.361 38.4978 20.1424 38.388 19.9785 38.2233C19.3228 37.7839 19.1589 37.2347 19.4867 36.5208C19.8146 35.9167 20.1424 35.3126 20.5249 34.7085C20.9074 34.1044 21.5085 33.9397 22.1642 34.2692C22.82 34.5987 23.421 34.9831 24.0767 35.3675C24.2953 35.5323 24.5685 35.6421 24.8418 35.8069C25.2243 35.0929 25.6068 34.4339 25.9893 33.8298C26.5903 32.7864 26.9728 32.6766 28.0111 33.2257C28.1203 33.2807 28.2296 33.3356 28.3936 33.3905C28.7761 32.6766 29.2132 32.0176 29.5957 31.3585C29.6503 31.2487 29.705 31.1389 29.8143 31.029C30.8525 29.8208 30.7979 28.5577 30.1968 27.1299C29.3225 24.9881 28.6121 22.7914 27.8471 20.5947C27.41 19.4414 27.5739 18.398 28.3389 17.4644C29.1586 16.5308 30.1968 16.2562 31.3989 16.5308C31.5629 16.5857 31.8361 16.5857 32 16.4758C34.8414 14.8283 37.7375 13.1808 40.579 11.5333C40.6336 11.5333 40.6336 11.4783 40.6883 11.4234C40.6336 11.3136 40.5243 11.2037 40.5243 11.039C40.3058 10.2152 41.18 10.3251 41.5079 9.99556C41.7265 9.77589 41.9997 9.66605 42.2183 10.1054C42.4368 10.5447 42.71 10.9292 42.9833 11.4234C44.0761 10.7644 45.169 10.1603 46.2619 9.55622C48.8301 8.07344 51.3983 6.59066 53.9665 5.10788C54.2944 4.94313 54.4037 4.77838 54.4037 4.33904C54.349 3.2956 54.8408 2.41692 55.7698 1.92266C56.7533 1.37348 57.7915 1.4284 58.6658 2.14233C59.4855 2.80134 59.9226 3.68002 59.6494 4.72346C59.4855 5.32755 59.5948 5.7669 59.9226 6.26116C60.3598 6.97509 60.7423 7.74393 61.1794 8.45786C61.2887 8.62262 61.5073 8.73245 61.6712 8.73245C64.8405 8.29311 67.4087 10.3251 67.6273 13.5103C67.6273 13.73 67.7366 14.0046 67.8459 14.1693C68.1737 14.7734 68.5562 15.3775 68.8841 15.9816C69.2666 16.6406 69.2666 16.7504 68.6109 17.2447C69.1573 18.2332 69.7038 19.2217 70.3048 20.2103C70.3595 20.3201 70.6327 20.375 70.742 20.3201C71.1791 20.1553 71.4523 20.3201 71.6163 20.7045C71.7802 21.034 71.9441 21.1988 72.3813 21.1988C72.5998 21.1988 72.9277 21.4734 73.0916 21.693C73.3102 22.0225 73.5288 22.1324 73.9113 22.1873C76.2609 22.407 78.5559 22.6266 80.9056 22.8463C81.3974 22.9012 81.7252 23.1209 81.8892 23.6151C82.8181 26.0315 83.8017 28.4479 84.7306 30.8643C85.1131 31.8528 84.8399 32.402 83.911 32.8413C83.4738 33.0061 83.2006 32.8413 82.9274 32.5667C81.7799 31.2487 80.6324 29.8758 79.4849 28.5028C79.157 28.1184 78.8291 28.0086 78.3374 27.9536C76.6434 27.7889 75.2227 28.2282 73.802 29.1618C72.108 30.2602 70.3595 31.1938 68.6109 32.1823C68.3923 32.2921 68.2284 32.5118 68.1191 32.6766C67.7366 33.3356 67.2995 33.9946 66.9716 34.7085C66.8623 34.9282 66.8077 35.3126 66.9169 35.5323C67.4634 37.2347 68.1191 38.8823 68.6655 40.5847C68.9387 41.3536 68.7748 41.6831 68.0098 41.9577C67.0809 42.2872 66.9169 42.2323 66.3705 41.4634C64.7859 39.4864 63.2559 37.4544 61.6712 35.5323C61.2341 34.9831 61.2341 34.4889 61.5073 33.8848C62.4909 31.8528 63.4198 29.7659 64.3487 27.6791C64.458 27.4594 64.458 27.1299 64.3487 26.9102C64.0755 26.416 64.0755 25.9766 64.5127 25.5373C64.4034 25.3176 64.2941 25.1528 64.1848 24.9332C63.9662 24.6037 64.0209 24.3291 64.3487 24.1094C64.458 23.9996 64.5127 23.7799 64.458 23.6701C63.9116 22.6815 63.3651 21.693 62.7641 20.7594C62.7094 20.8143 62.7094 20.8693 62.6548 20.9242C62.3269 20.8143 61.9444 20.8143 61.6712 20.5947C61.398 20.375 61.2887 19.9906 61.1248 19.6611C60.4144 19.6611 59.868 20.9791 59.103 19.716C58.2287 20.2103 57.409 20.7045 56.5894 21.1988C56.4801 21.2537 56.4801 21.4734 56.4801 21.5832C56.5894 21.8029 56.7533 22.0225 56.8626 22.2971C57.1905 22.9012 57.0812 23.2307 56.4801 23.6151C55.879 23.9996 55.4965 23.8897 55.1687 23.3406C54.0758 21.4734 52.983 19.5512 51.8901 17.684C51.4529 16.9701 51.0704 16.2562 50.6333 15.5422C50.3054 14.9382 50.3601 14.6086 51.0158 14.2242C51.6169 13.8947 51.9994 13.9496 52.3272 14.5537C52.4912 14.8283 52.6551 15.1578 52.8737 15.4873C53.748 14.9931 54.6222 14.4988 55.4419 14.0046C55.4965 13.9496 55.4965 13.73 55.4965 13.5652C55.3873 13.1808 55.4965 12.9611 55.8244 12.7964C56.3162 12.5218 56.7533 12.1923 57.2998 11.9726C58.0101 11.6431 58.4473 11.0939 58.8298 10.4898C58.8844 10.38 58.8844 10.1603 58.8298 10.0505C58.338 9.17179 57.9555 8.12836 57.2451 7.41443C56.7533 6.92017 55.879 6.75541 55.114 6.53574C55.0048 6.15132 54.8955 6.31607 54.7315 6.37099C51.1797 8.45786 47.6279 10.4898 44.0761 12.5767C43.9668 12.6316 43.9122 12.6865 43.7483 12.7964C43.9668 13.2357 44.1854 13.6201 44.4586 14.0046C44.6772 14.3341 44.6226 14.5537 44.2947 14.7185C44.1308 14.8283 43.9668 14.8832 43.8029 14.9931C43.0926 15.4324 43.0926 15.4324 42.5461 14.6636C39.9233 16.2013 37.2457 17.739 34.5136 19.3316C34.8961 19.8258 35.2786 20.2652 35.6611 20.7045C36.4261 21.5832 37.1911 22.5168 37.9561 23.3955C38.0654 23.5053 38.3932 23.6151 38.5025 23.5602C39.4315 23.066 40.3058 22.5168 41.2893 21.9676C41.1254 21.6381 40.9615 21.3086 40.7975 21.034C40.4697 20.4299 40.5243 20.1004 41.18 19.716C41.8358 19.3316 42.2183 19.3865 42.6008 20.0455C43.7483 22.0225 44.8411 23.9447 45.9886 25.9217C46.3711 26.5807 46.7536 27.2397 47.1361 27.8987C47.464 28.4479 47.3547 28.7774 46.7536 29.1069C46.0979 29.4913 45.7154 29.4364 45.3876 28.8872C44.7865 27.9536 44.7865 27.9536 43.8029 28.5028C43.0379 28.9422 42.2183 29.3815 41.4533 29.8758C41.2347 29.9856 41.0708 30.2602 41.0161 30.4799C40.6336 31.6331 39.9779 32.5118 38.9943 33.1708C38.885 33.2807 38.7211 33.3356 38.6665 33.4454C37.7922 34.9282 36.9725 36.3561 36.0982 37.8388C36.2622 37.9487 36.4261 38.0585 36.5354 38.1134C37.355 38.6077 37.519 39.1019 36.9725 39.9806C36.59 40.6396 36.2075 41.3536 35.7704 42.1224C36.59 42.6167 37.355 43.056 38.12 43.4954C39.1582 44.0994 39.3222 44.5937 38.7211 45.6371C38.5025 46.0765 38.2293 46.5158 38.0107 46.9003C37.4643 47.8339 36.9179 47.9437 36.0436 47.4494C35.8797 47.3396 35.7157 47.2847 35.4972 47.1748C35.0054 47.9986 34.5682 48.8224 34.0764 49.5912C33.0929 51.2937 32.1639 52.9412 31.1804 54.6437C31.0711 54.8084 31.0164 55.083 31.0164 55.2477C31.2896 58.5428 30.3061 61.3985 28.0657 63.8149C27.7925 64.0895 27.6832 64.3641 27.6832 64.7485C27.7378 65.737 27.6832 66.7255 27.6832 67.7141C28.4482 67.769 29.4318 67.5493 29.3771 68.8673C29.3225 70.0206 28.3936 69.6911 27.7378 69.8009C27.7378 70.1854 27.7378 70.5149 27.7378 70.8993C28.5575 70.8993 29.3225 70.8993 30.0875 70.8993C31.0164 70.8993 31.9454 70.8993 32.8743 70.8993C33.8032 70.8993 34.4589 71.5583 34.4589 72.4919C34.4589 73.6452 34.4589 74.7435 34.4589 75.8968C34.4589 76.1165 34.4589 76.2812 34.5136 76.5558C42.0543 76.5558 49.5404 76.5558 57.0812 76.5558C57.0812 75.2378 57.0812 73.9198 57.0812 72.4919C56.6987 72.4919 56.3708 72.4919 55.9883 72.4919C55.3873 72.4919 55.114 72.2173 55.114 71.6132C55.0594 70.8444 55.3326 70.5149 55.9337 70.4599C56.0976 70.4599 56.2069 70.4599 56.3708 70.4599C66.2612 70.4599 76.2063 70.4599 86.0967 70.4599C86.971 70.4599 87.2988 70.7345 87.3535 71.3935C87.4081 72.1624 87.0803 72.4919 86.3153 72.4919C86.042 72.4919 85.7142 72.4919 85.3863 72.4919C85.3863 73.8099 85.3863 75.1279 85.3863 76.5009ZM29.3771 56.3461C29.3771 51.2937 25.3882 47.2298 20.361 47.2298C15.3339 47.2298 11.2356 51.3486 11.2903 56.3461C11.2903 61.3436 15.3339 65.4075 20.361 65.4075C25.3335 65.4624 29.3771 61.3985 29.3771 56.3461ZM18.9949 45.4724C20.3064 45.5822 21.5632 45.6921 22.7653 45.8568C23.8582 46.0216 23.8582 46.0765 24.4046 45.1429C25.0603 44.0445 25.6614 42.9462 26.3171 41.7929C25.0057 41.0241 23.6942 40.2552 22.3828 39.5413C21.2353 41.5732 20.0878 43.5503 18.9949 45.4724ZM40.1418 28.9422C40.1418 26.6356 38.3932 24.8233 36.0982 24.8233C33.8579 24.8233 32 26.6356 32 28.8872C32 31.1389 33.8032 32.9512 36.0436 32.9512C38.3386 33.0061 40.1418 31.1938 40.1418 28.9422ZM62.6001 17.6291C64.7859 17.6291 66.6437 15.7619 66.6437 13.5652C66.6437 11.3136 64.8405 9.5013 62.5455 9.44638C60.3598 9.44638 58.5566 11.2587 58.5566 13.5103C58.5019 15.7619 60.3598 17.6291 62.6001 17.6291ZM63.9116 19.7709C64.5127 20.8693 65.1684 21.9127 65.7694 23.066C66.8623 22.4619 67.8459 21.8578 68.8295 21.2537C68.9387 21.1988 68.9934 20.9242 68.9387 20.8693C68.3923 19.8807 67.7912 18.8922 67.2448 17.8488C66.1519 18.4529 65.0591 19.057 63.9116 19.7709ZM55.4965 19.8807C56.4801 19.3316 57.3544 18.7824 58.2833 18.2332C57.6276 17.0799 56.9719 15.9816 56.3708 14.8832C55.3873 15.4324 54.513 15.9816 53.584 16.5308C54.2397 17.684 54.8408 18.7275 55.4965 19.8807ZM75.332 25.2627C75.332 24.0545 74.3484 23.066 73.2009 23.066C71.9988 23.066 71.0152 24.0545 71.0152 25.2627C71.0152 26.416 71.9988 27.4594 73.2009 27.4594C74.3484 27.4594 75.332 26.4709 75.332 25.2627ZM67.3541 26.4709C66.1519 26.4709 65.1684 27.4594 65.223 28.6676C65.223 29.8758 66.2066 30.8094 67.3541 30.8094C68.5562 30.8094 69.5398 29.8208 69.5398 28.6127C69.5398 27.4045 68.6109 26.4709 67.3541 26.4709ZM32.6011 19.4414C32.6011 18.343 31.7814 17.4644 30.6886 17.4094C29.5957 17.4094 28.6668 18.2881 28.6668 19.3865C28.6668 20.4848 29.5411 21.3635 30.6339 21.3635C31.7814 21.3635 32.6011 20.5398 32.6011 19.4414ZM56.9719 5.54723C57.7369 5.54723 58.3926 4.94313 58.4473 4.11937C58.4473 3.35052 57.7916 2.63659 56.9719 2.63659C56.2069 2.63659 55.5512 3.2956 55.5512 4.06445C55.5512 4.88821 56.2069 5.54723 56.9719 5.54723Z" stroke="white" stroke-width="2" mask="url(#path-89-outside-1_300_5009)"/>
<path d="M53.3705 24.5141L53.3507 24.5207L53.3315 24.529C53.2522 24.5631 53.2195 24.5507 53.2036 24.5437C53.1744 24.531 53.1091 24.4869 53.035 24.3566C52.2695 23.0101 51.504 21.6776 50.7391 20.3461L50.7389 20.3457C49.9738 19.0138 49.2094 17.683 48.445 16.3386L48.4451 16.3386L48.4397 16.3295C48.3765 16.2236 48.3552 16.1578 48.3488 16.1224C48.3441 16.0963 48.3474 16.0885 48.3495 16.0834C48.3496 16.0832 48.3497 16.083 48.3498 16.0828C48.3646 16.0468 48.4396 15.9389 48.755 15.754L48.7551 15.754L48.7603 15.7508C48.994 15.61 49.0914 15.6161 49.114 15.6206L49.1141 15.6207C49.1228 15.6224 49.2004 15.638 49.3282 15.8511C50.8578 18.4865 52.3861 21.1197 53.9143 23.8075L53.9228 23.8224L53.9323 23.8367C53.9657 23.887 53.9905 23.937 54.006 23.9753C53.9804 24.1361 53.9195 24.2189 53.8528 24.2781C53.7557 24.3645 53.6068 24.4349 53.3705 24.5141Z" fill="white" stroke="white"/>
<path d="M51.4539 25.2322L51.4537 25.2323L51.4609 25.2443C51.5804 25.4444 51.5567 25.5191 51.5485 25.5423C51.5299 25.595 51.4568 25.7077 51.1979 25.8756C50.9378 26.0159 50.8331 26.01 50.8056 26.0038L50.8053 26.0037C50.7965 26.0017 50.7142 25.9832 50.5811 25.738L50.5766 25.7297L50.5718 25.7216C49.4522 23.8328 48.3629 21.9163 47.2787 20.0088C46.8865 19.3187 46.495 18.6299 46.1029 17.9439C45.9897 17.7083 46.0262 17.5278 46.1094 17.4107C46.1865 17.3023 46.3532 17.1806 46.6515 17.1486C46.6718 17.1621 46.6923 17.1753 46.7107 17.1872L46.7147 17.1898C46.7391 17.2056 46.7611 17.2198 46.7828 17.2344C46.8611 17.2868 46.9097 17.3268 46.9406 17.3622C48.4649 19.9883 49.9866 22.6106 51.4539 25.2322Z" fill="white" stroke="white"/>
<path d="M43.8087 18.68L43.8167 18.676L43.8245 18.6717C44.0955 18.5231 44.2036 18.5291 44.2317 18.5355L44.2319 18.5355C44.2408 18.5375 44.3231 18.556 44.4562 18.8012L44.4561 18.8013L44.4615 18.8108L44.4623 18.8121C45.9371 21.3923 47.4141 23.9764 48.9462 26.5611L48.9598 26.5839L48.9756 26.6051C49.0385 26.6893 49.0702 26.7496 49.0852 26.7859C49.0907 26.799 49.0935 26.8079 49.0949 26.8128C49.0923 27.0041 49.0296 27.0785 48.9572 27.1356C48.8506 27.2198 48.7105 27.2724 48.4906 27.355C48.4726 27.3618 48.4541 27.3687 48.435 27.3759C48.3861 27.3944 48.3618 27.3934 48.355 27.3928C48.3487 27.3923 48.3387 27.3905 48.3202 27.3796C48.2717 27.3508 48.2021 27.2816 48.1065 27.1392C47.5634 26.2111 47.0336 25.2964 46.5031 24.3805L46.5027 24.3797C45.9706 23.4612 45.438 22.5415 44.8916 21.6079L43.5843 19.3086C43.4463 19.0531 43.467 18.9603 43.4729 18.9421C43.4796 18.921 43.5232 18.8234 43.8087 18.68Z" fill="white" stroke="white"/>
<path d="M13.5934 56.2363H13.5935L13.5934 56.2295C13.5427 52.5118 16.6374 49.489 20.3576 49.4872C24.1799 49.5401 27.1831 52.556 27.1831 56.456C27.1831 60.1266 24.0265 63.2051 20.361 63.2051C16.6079 63.2051 13.5934 60.0936 13.5934 56.2363ZM15.732 60.64L16.5553 60.0963C15.9788 58.8058 15.7356 57.5959 15.8776 56.4851C16.0182 55.3849 16.5424 54.3358 17.5853 53.3637C18.7098 52.3369 19.8379 51.902 20.9674 51.8898C22.1103 51.8775 23.3138 52.2974 24.5758 53.0901L25.2352 52.3582C23.7061 50.4077 21.6091 49.557 19.1741 50.0338C17.9265 50.2674 16.8559 50.7542 16.0056 51.5105C15.1538 52.268 14.5476 53.2743 14.1971 54.507L14.197 54.5069L14.1936 54.5201C13.6055 56.8252 14.1405 58.9221 15.732 60.64Z" fill="white" stroke="white"/>
<path d="M35.0704 29.2703C35.1155 28.9383 35.2625 28.6261 35.5717 28.313C36.1408 27.7867 36.8388 27.7437 37.7824 28.0931L38.5502 28.3774C38.5851 28.5424 38.6035 28.713 38.6035 28.8873C38.6035 30.261 37.4589 31.4078 36.0981 31.4078C35.9063 31.4078 35.7205 31.3877 35.5425 31.3495L35.2589 30.5351C35.0821 30.0274 35.0234 29.617 35.0704 29.2703Z" fill="white" stroke="white"/>
<path d="M62.6001 15.9759H62.5922L62.5844 15.9761C62.3806 15.9825 62.1849 15.9668 61.999 15.9311L61.7086 15.0554C61.5601 14.6076 61.5111 14.2218 61.5583 13.8896C61.6038 13.5697 61.742 13.2718 62.0191 12.9909C62.3297 12.7032 62.6393 12.5664 62.9613 12.5315C63.2947 12.4954 63.685 12.5642 64.1538 12.7626L65.0826 13.1556C65.0977 13.2712 65.1055 13.3895 65.1055 13.5103C65.1055 14.927 64.0277 15.9759 62.6001 15.9759Z" fill="white" stroke="white"/>
<path d="M73.1463 25.8611C72.8238 25.8611 72.5535 25.5931 72.5535 25.2628C72.5535 24.9325 72.8238 24.6644 73.1463 24.6644C73.5235 24.6644 73.7938 24.9325 73.7938 25.3177C73.7938 25.424 73.7389 25.5576 73.6094 25.6751C73.4811 25.7916 73.3115 25.8611 73.1463 25.8611Z" fill="white" stroke="white"/>
<path d="M67.4088 28.0143H67.4316L67.4543 28.0122C67.6854 27.9911 68.0016 28.2193 68.0016 28.6676C68.0016 28.9979 67.7314 29.2659 67.4088 29.2659C67.0862 29.2659 66.8159 28.9979 66.8159 28.6676C66.8159 28.5154 66.8871 28.3467 67.0176 28.2112C67.1503 28.0734 67.3003 28.0143 67.4088 28.0143Z" fill="white" stroke="white"/>
<path d="M31.0668 19.3798L31.0668 19.3798L31.066 19.3866C31.0378 19.6418 30.8022 19.8202 30.6341 19.8202C30.481 19.8202 30.2722 19.6753 30.2603 19.3602C30.2936 19.1517 30.4402 19.0192 30.6598 19.0086C30.7723 19.0279 30.8868 19.0897 30.9692 19.1759C31.0599 19.2709 31.0708 19.3481 31.0668 19.3798Z" fill="white" stroke="white"/>
<mask id="path-99-inside-2_300_5009" fill="white">
<path d="M57.0814 3.51526C57.2453 3.73493 57.5186 3.89968 57.5186 4.11935C57.5186 4.33902 57.2453 4.61361 57.0268 4.61361C56.8628 4.61361 56.535 4.33902 56.535 4.17427C56.4803 4.00952 56.7535 3.73493 56.8628 3.57018C56.9175 3.51526 57.0268 3.51526 57.0814 3.51526Z"/>
</mask>
<path d="M57.0814 3.51526C57.2453 3.73493 57.5186 3.89968 57.5186 4.11935C57.5186 4.33902 57.2453 4.61361 57.0268 4.61361C56.8628 4.61361 56.535 4.33902 56.535 4.17427C56.4803 4.00952 56.7535 3.73493 56.8628 3.57018C56.9175 3.51526 57.0268 3.51526 57.0814 3.51526Z" fill="white"/>
<path d="M57.0814 3.51526L57.8828 2.91718L57.5829 2.51526H57.0814V3.51526ZM56.535 4.17427H57.535V4.01276L57.4841 3.85947L56.535 4.17427ZM56.8628 3.57018L56.154 2.86484L56.0842 2.93497L56.0295 3.0174L56.8628 3.57018ZM56.28 4.11333C56.3616 4.22266 56.4467 4.3121 56.5039 4.37057C56.5308 4.39814 56.5639 4.43117 56.5813 4.44877C56.6032 4.47081 56.6168 4.48495 56.627 4.49593C56.6517 4.52265 56.6308 4.50483 56.6031 4.45584C56.5708 4.3988 56.5186 4.28098 56.5186 4.11935H58.5186C58.5186 3.592 58.1927 3.24339 58.0959 3.13869C58.0401 3.07822 57.9559 2.99479 57.9339 2.97229C57.915 2.95304 57.9025 2.93971 57.8934 2.92953C57.8845 2.91949 57.8818 2.91578 57.8828 2.91718L56.28 4.11333ZM56.5186 4.11935C56.5186 3.97323 56.5614 3.87432 56.5825 3.83311C56.606 3.78736 56.6295 3.75986 56.6457 3.74353C56.662 3.72723 56.6897 3.70325 56.736 3.67924C56.7778 3.65762 56.8783 3.61361 57.0268 3.61361V5.61361C57.5108 5.61361 57.874 5.34462 58.0635 5.15419C58.2537 4.96303 58.5186 4.60019 58.5186 4.11935H56.5186ZM57.0268 3.61361C57.1391 3.61361 57.2216 3.63579 57.2613 3.64841C57.3048 3.66225 57.3336 3.67644 57.3466 3.68326C57.3608 3.69075 57.3687 3.69612 57.3713 3.69789C57.3741 3.69988 57.3754 3.701 57.3762 3.70166C57.3769 3.70227 57.3798 3.70484 57.385 3.71047C57.3897 3.71561 57.4009 3.72833 57.4154 3.74967C57.4289 3.7695 57.4542 3.80982 57.4782 3.86993C57.5012 3.92745 57.535 4.03337 57.535 4.17427H55.535C55.535 4.51394 55.6875 4.76551 55.7621 4.87518C55.8545 5.01085 55.9632 5.12323 56.0626 5.20979C56.1632 5.29745 56.2829 5.38348 56.4149 5.45301C56.5227 5.50972 56.7457 5.61361 57.0268 5.61361V3.61361ZM57.4841 3.85947C57.5305 3.99912 57.5327 4.12334 57.5235 4.21123C57.5147 4.29649 57.4942 4.35834 57.4821 4.38992C57.4606 4.44644 57.4422 4.46687 57.4628 4.43682C57.48 4.41161 57.5037 4.38062 57.5465 4.32565C57.5651 4.30183 57.5897 4.27032 57.6131 4.23938C57.6363 4.20862 57.6663 4.16796 57.6962 4.12295L56.0295 3.0174C56.032 3.01359 56.0296 3.01755 56.0172 3.03398C56.0049 3.05023 55.9907 3.06849 55.9691 3.09616C55.9317 3.14416 55.87 3.22301 55.8121 3.30762C55.7575 3.38741 55.6743 3.51768 55.6134 3.67717C55.5575 3.82387 55.4675 4.13219 55.5858 4.48907L57.4841 3.85947ZM57.5717 4.27551C57.4683 4.3794 57.3623 4.43465 57.2926 4.46331C57.2229 4.49197 57.1666 4.50347 57.1373 4.50838C57.0855 4.51706 57.0483 4.51526 57.0814 4.51526V2.51526C57.0599 2.51526 56.9407 2.51346 56.8069 2.53586C56.6958 2.55447 56.4028 2.61475 56.154 2.86484L57.5717 4.27551Z" fill="white" mask="url(#path-99-inside-2_300_5009)"/>
</svg>
