<svg width="25" height="26" viewBox="0 0 25 26" fill="none" xmlns="http://www.w3.org/2000/svg">
<path d="M8.5651 26C7.13765 26 6.01608 24.8784 6.01608 23.5529C6.01608 22.2275 7.13765 21.1059 8.5651 21.1059C9.99255 21.1059 11.1141 22.2275 11.1141 23.5529C11.1141 24.8784 9.99255 26 8.5651 26ZM8.5651 22.5333C8.05529 22.5333 7.54549 22.9412 7.54549 23.451C7.54549 23.9608 7.95333 24.3686 8.5651 24.3686C9.17686 24.3686 9.58471 23.9608 9.58471 23.451C9.58471 22.9412 9.17686 22.5333 8.5651 22.5333Z" fill="white"/>
<path d="M19.1684 25.8981C17.741 25.8981 16.6194 24.7765 16.6194 23.451C16.6194 22.1255 17.741 21.004 19.1684 21.004C20.5959 21.004 21.7174 22.1255 21.7174 23.451C21.7174 24.7765 20.5959 25.8981 19.1684 25.8981ZM19.1684 22.5334C18.6586 22.5334 18.1488 22.9412 18.1488 23.451C18.1488 23.9608 18.5567 24.3687 19.1684 24.3687C19.6782 24.3687 20.188 23.9608 20.188 23.451C20.188 22.9412 19.7802 22.5334 19.1684 22.5334Z" fill="white"/>
<path d="M22.1255 20.4941H5.7098C4.28235 20.4941 3.05882 19.3725 3.05882 17.9451C3.05882 16.5176 4.28235 15.3961 5.7098 15.3961H21.5137L23.247 6.01567H9.38039C8.97254 6.01567 8.5647 5.70979 8.5647 5.19999C8.5647 4.69018 8.87058 4.3843 9.38039 4.3843H24.1647C24.3686 4.3843 24.5725 4.48626 24.7765 4.69018C24.9804 4.8941 24.9804 5.09802 24.9804 5.30195L22.9412 16.2117C22.8392 16.6196 22.5333 16.8235 22.2274 16.8235H5.7098C5.09804 16.8235 4.58823 17.3333 4.58823 17.8431C4.58823 18.3529 5.09804 18.8627 5.7098 18.8627H22.1255C22.5333 18.8627 22.9412 19.1686 22.9412 19.6784C22.9412 20.1882 22.5333 20.4941 22.1255 20.4941Z" fill="white"/>
<path d="M8.36078 16.9255C7.95294 16.9255 7.64705 16.7216 7.64705 16.3137C6.72941 11.8274 5.2 3.87451 4.99607 2.65098C4.79215 1.63137 3.56863 1.42745 3.56863 1.42745L0.713725 1.52941C0.305882 1.52941 0 1.12157 0 0.713725C0 0.305882 0.305882 0 0.713725 0H3.67059C4.58823 0.101961 6.2196 0.611765 6.52549 2.44706C6.72941 3.67059 8.25882 11.6235 9.17647 16.1098C9.27843 16.5176 8.97254 16.9255 8.5647 17.0274C8.46274 16.9255 8.46274 16.9255 8.36078 16.9255Z" fill="white"/>
</svg>
