<svg width="12" height="12" viewBox="0 0 12 12" fill="none" xmlns="http://www.w3.org/2000/svg">
<path d="M2.92353 6.63527C2.80588 6.63527 2.70784 6.59606 2.62941 6.51763C2.55098 6.43921 2.51176 6.34116 2.51176 6.2235C2.51176 6.10978 2.55098 6.01371 2.62941 5.93529C2.70784 5.85685 2.80588 5.81764 2.92353 5.81764H5.58823V2.25882C5.58823 2.1451 5.62744 2.04902 5.70588 1.97058C5.78431 1.89215 5.88038 1.85294 5.99411 1.85294C6.11174 1.85294 6.20979 1.89215 6.28826 1.97058C6.36668 2.04902 6.4059 2.1451 6.4059 2.25882V6.2235C6.4059 6.34116 6.36668 6.43921 6.28826 6.51763C6.20979 6.59606 6.11174 6.63527 5.99411 6.63527H2.92353ZM5.99999 12C6.81962 12 7.59118 11.8431 8.31469 11.5294C9.03823 11.2157 9.67647 10.7823 10.2294 10.2294C10.7823 9.67647 11.2157 9.03823 11.5294 8.31469C11.8431 7.59118 12 6.81962 12 5.99999C12 5.18039 11.8431 4.40882 11.5294 3.68529C11.2157 2.96176 10.7823 2.32353 10.2294 1.77058C9.67647 1.21764 9.03725 0.784312 8.31174 0.470587C7.58627 0.156862 6.81372 -9.53674e-07 5.99411 -9.53674e-07C5.1745 -9.53674e-07 4.40294 0.156862 3.67941 0.470587C2.95588 0.784312 2.31862 1.21764 1.76764 1.77058C1.21667 2.32353 0.784313 2.96176 0.470588 3.68529C0.156863 4.40882 0 5.18039 0 5.99999C0 6.81962 0.156863 7.59118 0.470588 8.31469C0.784313 9.03823 1.21764 9.67647 1.77058 10.2294C2.32353 10.7823 2.96176 11.2157 3.68529 11.5294C4.40882 11.8431 5.18039 12 5.99999 12Z" fill="black"/>
</svg>
