<svg width="24" height="22" viewBox="0 0 24 22" fill="none" xmlns="http://www.w3.org/2000/svg">
<path d="M11.7333 22C11.3667 22 10.7556 21.7556 10.2667 21.3889C3.54444 17.1111 0 12.3444 0 7.57778C0 3.3 3.05556 0 7.21111 0C9.04444 0 10.6333 0.611111 11.8556 1.83333C13.0778 0.611111 14.6667 0 16.5 0C20.5333 0 23.7111 3.3 23.7111 7.57778C23.7111 12.2222 20.1667 16.9889 13.4444 21.3889C12.7111 21.7556 12.2222 22 11.7333 22ZM7.21111 1.83333C4.15556 1.83333 1.83333 4.27778 1.83333 7.57778C1.83333 11.4889 5.13333 15.8889 11.2444 19.8C11.6111 20.0444 11.7333 20.0444 11.8556 20.0444C11.8556 20.0444 11.9778 19.9222 12.3444 19.8C18.4556 15.8889 21.7556 11.4889 21.7556 7.57778C21.7556 4.27778 19.5556 1.83333 16.3778 1.83333C14.7889 1.83333 13.3222 2.56667 12.4667 3.78889L11.7333 4.88889L11 3.78889C10.1444 2.56667 8.8 1.83333 7.21111 1.83333Z" fill="white"/>
</svg>
