<svg width="16" height="12" viewBox="0 0 16 12" fill="none" xmlns="http://www.w3.org/2000/svg">
<path d="M15.6804 3.9625C15.8021 3.86562 15.9832 3.95625 15.9832 4.10937V10.5C15.9832 11.3281 15.312 12 14.4848 12H1.49842C0.671169 12 0 11.3281 0 10.5V4.1125C0 3.95625 0.177938 3.86875 0.302807 3.96562C1.00207 4.50937 1.92922 5.2 5.11337 7.51562C5.77206 7.99687 6.88339 9.00937 7.9916 9.00312C9.10605 9.0125 10.2392 7.97812 10.8729 7.51562C14.0571 5.2 14.9811 4.50625 15.6804 3.9625ZM7.9916 8C8.71584 8.0125 9.75849 7.0875 10.2829 6.70625C14.4255 3.69687 14.7407 3.43437 15.696 2.68437C15.8771 2.54375 15.9832 2.325 15.9832 2.09375V1.5C15.9832 0.671873 15.312 -1.90735e-06 14.4848 -1.90735e-06H1.49842C0.671169 -1.90735e-06 0 0.671873 0 1.5V2.09375C0 2.325 0.106138 2.54062 0.287198 2.68437C1.24244 3.43125 1.55774 3.69687 5.70026 6.70625C6.2247 7.0875 7.26736 8.0125 7.9916 8Z" fill="black"/>
</svg>
