<svg width="12" height="12" viewBox="0 0 12 12" fill="none" xmlns="http://www.w3.org/2000/svg">
<path d="M3.29461 8.68004C5.16367 10.5554 7.43823 12 9.29461 12C10.1246 12 10.8532 11.7086 11.4361 11.0623C11.7782 10.6822 11.9873 10.245 11.9873 9.80781C11.9873 9.47202 11.8543 9.14256 11.5312 8.91447L9.58606 7.53326C9.27561 7.31785 9.02218 7.21647 8.79409 7.21647C8.4963 7.21647 8.2302 7.3812 7.93875 7.67265L7.48258 8.12883C7.40655 8.19852 7.31785 8.2302 7.23548 8.2302C7.13411 8.2302 7.03907 8.19219 6.97571 8.15417C6.57656 7.93875 5.89229 7.35586 5.25871 6.72228C4.62513 6.0887 4.0359 5.41077 3.82682 5.00528C3.78881 4.93559 3.75713 4.84688 3.75713 4.74551C3.75713 4.66948 3.78247 4.58078 3.85216 4.50475L4.30834 4.04224C4.59345 3.74446 4.76452 3.48469 4.76452 3.18691C4.76452 2.95248 4.66315 2.69905 4.44773 2.39493L3.07286 0.468849C2.83844 0.139388 2.50898 0 2.14784 0C1.717 0 1.28617 0.190074 0.912355 0.551214C0.278775 1.14678 0 1.88807 0 2.70539C0 4.56177 1.42555 6.81098 3.29461 8.68004Z" fill="white"/>
</svg>
