<svg width="20" height="20" viewBox="0 0 20 20" fill="none" xmlns="http://www.w3.org/2000/svg">
<path d="M3.5206 20H16.4794C18.8015 20 20 18.8015 20 16.5115V3.4885C20 1.1985 18.8015 0 16.4794 0H3.5206C1.2092 0 0 1.1878 0 3.4885V16.5115C0 18.8015 1.2092 20 3.5206 20ZM12.199 15.3344C11.878 15.6447 11.236 15.6233 10.8935 15.3023L6.48475 11.1503C5.82129 10.5297 5.82129 9.4596 6.48475 8.83895L10.8935 4.687C11.2681 4.33387 11.8352 4.33387 12.1883 4.6549C12.5736 5.01873 12.5736 5.62868 12.2097 5.98181L7.92937 9.98395L12.2097 14.0075C12.5629 14.3606 12.5843 14.9492 12.199 15.3344Z" fill="#343537"/>
</svg>
