<svg width="12" height="12" viewBox="0 0 12 12" fill="none" xmlns="http://www.w3.org/2000/svg">
<path d="M7.15243 12C7.59415 12 7.89995 11.6432 8.10949 11.0996L11.8471 1.31949C11.9434 1.07032 12 0.849457 12 0.656914C12 0.254837 11.7452 0 11.3374 0C11.1505 0 10.924 0.0509674 10.6748 0.147239L0.85512 3.9075C0.368098 4.09438 0 4.40019 0 4.84191C0 5.3799 0.402076 5.58377 0.957055 5.75366L3.89051 6.64842C4.28693 6.77301 4.51911 6.76734 4.7966 6.50684L11.1052 0.662577C11.1845 0.588957 11.2808 0.600283 11.3431 0.656914C11.4054 0.713544 11.4054 0.815479 11.3374 0.889099L5.50448 7.20906C5.26663 7.47522 5.24398 7.7244 5.36291 8.12081L6.23502 10.9976C6.40491 11.5753 6.60878 12 7.15243 12Z" fill="white"/>
</svg>
