<svg width="30" height="30" viewBox="0 0 30 30" fill="none" xmlns="http://www.w3.org/2000/svg">
<path fill-rule="evenodd" clip-rule="evenodd" d="M0 15C0 23.2843 6.71573 30 15 30C23.2843 30 30 23.2843 30 15C30 6.71573 23.2843 0 15 0C6.71573 0 0 6.71573 0 15ZM24.4138 14.4259C24.4119 19.3427 20.4122 23.3433 15.4944 23.3453H15.4907C13.9979 23.3448 12.5311 22.9703 11.2283 22.2597L6.5 23.5L7.76538 18.878C6.98483 17.5253 6.57411 15.9909 6.57478 14.4189C6.57674 9.50106 10.578 5.5 15.4943 5.5C17.8804 5.50103 20.1199 6.42992 21.8039 8.11588C23.4879 9.80176 24.4148 12.0427 24.4138 14.4259Z" fill="#343537"/>
<path fill-rule="evenodd" clip-rule="evenodd" d="M8.63894 21.381L11.4448 20.645L11.7155 20.8057C12.8538 21.4811 14.1585 21.8385 15.4888 21.839H15.4918C19.5779 21.839 22.9036 18.5133 22.9052 14.4255C22.906 12.4446 22.1356 10.582 20.7359 9.18069C19.3363 7.77938 17.4749 7.00728 15.4947 7.00659C11.4055 7.00659 8.07975 10.332 8.07812 14.4195C8.07755 15.8203 8.4695 17.1845 9.2116 18.3648L9.38787 18.6453L8.63894 21.381ZM19.6795 16.3463C19.835 16.4215 19.94 16.4722 19.9848 16.547C20.0405 16.6399 20.0405 17.0862 19.8548 17.6068C19.6691 18.1274 18.7787 18.6025 18.3505 18.6665C17.9665 18.7239 17.4806 18.7479 16.9468 18.5782C16.6231 18.4755 16.208 18.3384 15.6762 18.1087C13.5869 17.2066 12.1749 15.1815 11.9081 14.7988C11.8894 14.772 11.8763 14.7533 11.869 14.7435L11.8672 14.7411C11.7493 14.5838 10.959 13.5293 10.959 12.438C10.959 11.4114 11.4633 10.8734 11.6954 10.6257C11.7113 10.6087 11.7259 10.5931 11.739 10.5788C11.9433 10.3557 12.1847 10.2999 12.3333 10.2999C12.4819 10.2999 12.6306 10.3013 12.7605 10.3078C12.7765 10.3086 12.7931 10.3085 12.8104 10.3084C12.9403 10.3076 13.1022 10.3067 13.2619 10.6904C13.3234 10.838 13.4133 11.0569 13.5081 11.2878C13.6999 11.7547 13.9118 12.2705 13.949 12.3452C14.0048 12.4567 14.0419 12.5868 13.9676 12.7356C13.9565 12.758 13.9462 12.779 13.9363 12.7991C13.8805 12.913 13.8395 12.9968 13.7448 13.1074C13.7075 13.1509 13.669 13.1978 13.6305 13.2446C13.5539 13.338 13.4772 13.4314 13.4105 13.4979C13.2989 13.609 13.1827 13.7296 13.3127 13.9527C13.4427 14.1758 13.89 14.9056 14.5526 15.4966C15.2648 16.1319 15.8838 16.4004 16.1975 16.5365C16.2588 16.563 16.3084 16.5846 16.3448 16.6028C16.5676 16.7144 16.6976 16.6957 16.8276 16.547C16.9577 16.3983 17.3848 15.8962 17.5333 15.6731C17.6819 15.4501 17.8305 15.4872 18.0347 15.5616C18.2391 15.636 19.3348 16.1751 19.5577 16.2867C19.6012 16.3085 19.6418 16.3281 19.6795 16.3463Z" fill="#343537"/>
</svg>
